<svg width="251" height="227" viewBox="0 0 251 227" fill="none" xmlns="http://www.w3.org/2000/svg">
<circle cx="125.042" cy="137.354" r="85.0288" fill="#F5F8FF"/>
<path d="M126.5 38L214.402 179.75H38.5984L126.5 38Z" stroke="#99BDFF" stroke-width="2.30847" stroke-linecap="round" stroke-dasharray="7.69 7.69"/>
<path d="M35.4417 186.973C35.4417 194.418 29.4066 200.453 21.962 200.453C14.5174 200.453 8.4823 194.418 8.4823 186.973C8.4823 179.529 14.5174 173.494 21.962 173.494C29.4066 173.494 35.4417 179.529 35.4417 186.973Z" fill="#FF9C27"/>
<path d="M90.48 186.973C90.48 194.418 84.445 200.453 77.0003 200.453C69.5557 200.453 63.5206 194.418 63.5206 186.973C63.5206 179.529 69.5557 173.494 77.0003 173.494C84.445 173.494 90.48 179.529 90.48 186.973Z" fill="#FF9C27"/>
<path d="M83.4093 179.154C83.4093 196.331 68.2187 210.256 49.4801 210.256C30.7415 210.256 15.5509 196.331 15.5509 179.154C15.5509 161.977 30.7415 148.052 49.4801 148.052C68.2187 148.052 83.4093 161.977 83.4093 179.154Z" fill="#FFBA68"/>
<mask id="mask0_1_316" style="mask-type:alpha" maskUnits="userSpaceOnUse" x="15" y="148" width="69" height="63">
<path d="M83.4093 179.148C83.4093 196.326 68.2187 210.25 49.4801 210.25C30.7415 210.25 15.5509 196.326 15.5509 179.148C15.5509 161.971 30.7415 148.047 49.4801 148.047C68.2187 148.047 83.4093 161.971 83.4093 179.148Z" fill="#FFAB49"/>
</mask>
<g mask="url(#mask0_1_316)">
<path d="M37.7665 195.127C37.7665 202.39 31.8375 208.278 24.5236 208.278C17.2098 208.278 11.2807 202.39 11.2807 195.127C11.2807 187.864 17.2098 181.976 24.5236 181.976C31.8375 181.976 37.7665 187.864 37.7665 195.127Z" fill="#FF9A24"/>
<path d="M87.1332 195.127C87.1332 202.39 81.2042 208.278 73.8903 208.278C66.5765 208.278 60.6474 202.39 60.6474 195.127C60.6474 187.864 66.5765 181.976 73.8903 181.976C81.2042 181.976 87.1332 187.864 87.1332 195.127Z" fill="#FF9A24"/>
</g>
<path d="M50.8938 189.045C50.8938 189.825 50.2609 190.458 49.4801 190.458C48.6993 190.458 48.0664 189.825 48.0664 189.045C48.0664 188.264 48.6993 187.631 49.4801 187.631C50.2609 187.631 50.8938 188.264 50.8938 189.045Z" fill="black"/>
<path d="M42.4115 183.526C42.4115 185.012 41.1456 186.217 39.5841 186.217C38.0225 186.217 36.7566 185.012 36.7566 183.526C36.7566 182.04 38.0225 180.836 39.5841 180.836C41.1456 180.836 42.4115 182.04 42.4115 183.526Z" fill="black"/>
<path fill-rule="evenodd" clip-rule="evenodd" d="M41.0299 179.681C41.3068 180.172 41.113 180.783 40.597 181.047C40.3165 181.19 39.8914 181.483 39.5891 181.849C39.2886 182.213 39.2059 182.519 39.2731 182.787C39.4093 183.329 39.0579 183.873 38.4884 184.003C37.9189 184.132 37.3468 183.798 37.2106 183.256C36.9363 182.164 37.4004 181.233 37.9222 180.602C38.442 179.973 39.1146 179.514 39.5943 179.269C40.1103 179.005 40.7531 179.19 41.0299 179.681Z" fill="black"/>
<path d="M62.2035 183.526C62.2035 185.012 60.9377 186.217 59.3761 186.217C57.8146 186.217 56.5487 185.012 56.5487 183.526C56.5487 182.04 57.8146 180.836 59.3761 180.836C60.9377 180.836 62.2035 182.04 62.2035 183.526Z" fill="black"/>
<path fill-rule="evenodd" clip-rule="evenodd" d="M60.822 179.681C61.0988 180.172 60.905 180.783 60.389 181.047C60.1085 181.19 59.6835 181.483 59.3811 181.849C59.0807 182.213 58.998 182.519 59.0651 182.787C59.2013 183.329 58.85 183.873 58.2804 184.003C57.7109 184.132 57.1388 183.798 57.0027 183.256C56.7284 182.164 57.1924 181.233 57.7142 180.602C58.2341 179.973 58.9067 179.514 59.3864 179.269C59.9024 179.005 60.5451 179.19 60.822 179.681Z" fill="black"/>
<path fill-rule="evenodd" clip-rule="evenodd" d="M49.4801 196.113L41.6985 193.689C41.1544 193.519 40.8667 192.987 41.056 192.5C41.2452 192.012 41.8397 191.755 42.3839 191.924L49.4801 194.135L56.5763 191.924C57.1204 191.755 57.715 192.012 57.9042 192.5C58.0935 192.987 57.8058 193.519 57.2617 193.689L49.4801 196.113Z" fill="#A75A00"/>
<path fill-rule="evenodd" clip-rule="evenodd" d="M39.5931 176.305C40.6139 176.412 41.5406 176.106 42.0466 175.814C42.5199 175.541 43.1251 175.703 43.3984 176.176C43.6718 176.649 43.5096 177.255 43.0363 177.528C42.2231 177.998 40.8822 178.43 39.3878 178.274C37.8484 178.113 36.2107 177.333 34.8907 175.482C34.5733 175.037 34.6768 174.419 35.1218 174.102C35.5667 173.785 36.1847 173.888 36.5021 174.333C37.4919 175.721 38.6172 176.204 39.5931 176.305Z" fill="#905A09"/>
<path fill-rule="evenodd" clip-rule="evenodd" d="M59.6266 176.305C58.6058 176.412 57.6792 176.106 57.1732 175.814C56.6999 175.541 56.0946 175.703 55.8213 176.176C55.548 176.649 55.7101 177.255 56.1834 177.528C56.9966 177.998 58.3376 178.43 59.832 178.274C61.3713 178.113 63.009 177.333 64.3291 175.482C64.6464 175.037 64.543 174.419 64.098 174.102C63.653 173.785 63.035 173.888 62.7177 174.333C61.7278 175.721 60.6026 176.204 59.6266 176.305Z" fill="#905A09"/>
<path d="M36.3076 146.277C8.45278 143.779 10.8021 168.902 15.8691 176.321L33.8152 171.74L37.5426 160.105C39.9824 174.217 35.484 172.95 83.9435 176.321C97.9542 139.684 43.4796 132.057 36.3076 146.277Z" fill="#FF7777"/>
<path d="M111.621 77.5802C111.621 85.0248 105.586 91.0599 98.1417 91.0599C90.6971 91.0599 84.662 85.0248 84.662 77.5802C84.662 70.1355 90.6971 64.1005 98.1417 64.1005C105.586 64.1005 111.621 70.1355 111.621 77.5802Z" fill="#FF9C27"/>
<path d="M166.66 77.5802C166.66 85.0248 160.625 91.0599 153.18 91.0599C145.735 91.0599 139.7 85.0248 139.7 77.5802C139.7 70.1355 145.735 64.1005 153.18 64.1005C160.625 64.1005 166.66 70.1355 166.66 77.5802Z" fill="#FF9C27"/>
<path d="M159.589 69.7608C159.589 86.9379 144.398 100.863 125.66 100.863C106.921 100.863 91.7306 86.9379 91.7306 69.7608C91.7306 52.5838 106.921 38.6591 125.66 38.6591C144.398 38.6591 159.589 52.5838 159.589 69.7608Z" fill="#FFBA68"/>
<mask id="mask1_1_316" style="mask-type:alpha" maskUnits="userSpaceOnUse" x="91" y="38" width="69" height="63">
<path d="M159.589 69.7553C159.589 86.9324 144.398 100.857 125.66 100.857C106.921 100.857 91.7306 86.9324 91.7306 69.7553C91.7306 52.5783 106.921 38.6535 125.66 38.6535C144.398 38.6535 159.589 52.5783 159.589 69.7553Z" fill="#FFAB49"/>
</mask>
<g mask="url(#mask1_1_316)">
<path d="M113.946 85.7337C113.946 92.9967 108.017 98.8846 100.703 98.8846C93.3895 98.8846 87.4604 92.9967 87.4604 85.7337C87.4604 78.4706 93.3895 72.5828 100.703 72.5828C108.017 72.5828 113.946 78.4706 113.946 85.7337Z" fill="#FF9A24"/>
<path d="M163.313 85.7337C163.313 92.9967 157.384 98.8846 150.07 98.8846C142.756 98.8846 136.827 92.9967 136.827 85.7337C136.827 78.4706 142.756 72.5828 150.07 72.5828C157.384 72.5828 163.313 78.4706 163.313 85.7337Z" fill="#FF9A24"/>
</g>
<path d="M127.073 79.6513C127.073 80.4321 126.441 81.0651 125.66 81.0651C124.879 81.0651 124.246 80.4321 124.246 79.6513C124.246 78.8706 124.879 78.2376 125.66 78.2376C126.441 78.2376 127.073 78.8706 127.073 79.6513Z" fill="black"/>
<path d="M118.591 74.1331C118.591 75.6192 117.325 76.8239 115.764 76.8239C114.202 76.8239 112.936 75.6192 112.936 74.1331C112.936 72.6471 114.202 71.4424 115.764 71.4424C117.325 71.4424 118.591 72.6471 118.591 74.1331Z" fill="black"/>
<path fill-rule="evenodd" clip-rule="evenodd" d="M117.21 70.2875C117.486 70.7785 117.293 71.3902 116.777 71.6537C116.496 71.7969 116.071 72.0901 115.769 72.456C115.468 72.8195 115.386 73.1263 115.453 73.3936C115.589 73.9356 115.238 74.48 114.668 74.6096C114.099 74.7392 113.526 74.4048 113.39 73.8628C113.116 72.7709 113.58 71.8399 114.102 71.2085C114.622 70.5794 115.294 70.1204 115.774 69.8754C116.29 69.6119 116.933 69.7964 117.21 70.2875Z" fill="black"/>
<path d="M138.383 74.1331C138.383 75.6192 137.117 76.8239 135.556 76.8239C133.994 76.8239 132.728 75.6192 132.728 74.1331C132.728 72.6471 133.994 71.4424 135.556 71.4424C137.117 71.4424 138.383 72.6471 138.383 74.1331Z" fill="black"/>
<path fill-rule="evenodd" clip-rule="evenodd" d="M137.002 70.2875C137.279 70.7785 137.085 71.3902 136.569 71.6537C136.288 71.7969 135.863 72.0901 135.561 72.456C135.26 72.8195 135.178 73.1263 135.245 73.3936C135.381 73.9356 135.03 74.48 134.46 74.6096C133.891 74.7392 133.319 74.4048 133.182 73.8628C132.908 72.7709 133.372 71.8399 133.894 71.2085C134.414 70.5794 135.086 70.1204 135.566 69.8754C136.082 69.6119 136.725 69.7964 137.002 70.2875Z" fill="black"/>
<path fill-rule="evenodd" clip-rule="evenodd" d="M117.878 84.2958C122.946 85.8745 128.374 85.8745 133.441 84.2958V84.2958C133.985 84.1263 134.273 83.5938 134.084 83.1064C133.895 82.6191 133.3 82.3614 132.756 82.5309V82.5309C128.135 83.9706 123.185 83.9706 118.564 82.5309V82.5309C118.019 82.3614 117.425 82.6191 117.236 83.1064C117.046 83.5938 117.334 84.1263 117.878 84.2958V84.2958Z" fill="#A75A00"/>
<path fill-rule="evenodd" clip-rule="evenodd" d="M114.469 66.5465C113.454 66.698 112.632 67.2252 112.215 67.6344C111.825 68.0171 111.199 68.0111 110.816 67.6209C110.433 67.2308 110.439 66.6042 110.829 66.2215C111.5 65.5639 112.69 64.8108 114.176 64.589C115.707 64.3605 117.488 64.7073 119.228 66.1705C119.646 66.5222 119.7 67.1465 119.348 67.5648C118.997 67.9831 118.372 68.0371 117.954 67.6853C116.649 66.5881 115.439 66.4016 114.469 66.5465Z" fill="#905A09"/>
<path fill-rule="evenodd" clip-rule="evenodd" d="M135.674 66.5465C134.659 66.698 133.838 67.2252 133.421 67.6344C133.031 68.0171 132.404 68.0111 132.022 67.6209C131.639 67.2308 131.645 66.6042 132.035 66.2215C132.705 65.5639 133.896 64.8108 135.382 64.589C136.913 64.3605 138.693 64.7073 140.434 66.1705C140.852 66.5222 140.906 67.1465 140.554 67.5648C140.202 67.9831 139.578 68.0371 139.16 67.6853C137.855 66.5881 136.645 66.4016 135.674 66.5465Z" fill="#905A09"/>
<path d="M112.074 31.0082C122.274 35.0674 129.237 23.3194 147.552 37.2085C152.527 36.6013 147.552 18.934 154.846 29.0503C160.68 37.1434 155.551 39.3098 152.457 38.657C164.725 46.8154 171.688 73.2482 156.835 70.8208C138.818 67.8764 145.562 44.3879 140.92 50.2619C136.278 56.1359 99.1499 73.8627 91.5158 70.8208C86.142 68.6796 86.142 61.174 91.5158 59.0729C90.853 58.3114 87.203 58.8896 86.142 53.6683C85.0809 48.447 97.0431 39.3841 102.127 37.2085C102.127 31.6609 101.288 26.7155 112.074 31.0082Z" fill="black"/>
<path d="M187.032 192.628C187.032 200.073 180.996 206.108 173.552 206.108C166.107 206.108 160.072 200.073 160.072 192.628C160.072 185.184 166.107 179.148 173.552 179.148C180.996 179.148 187.032 185.184 187.032 192.628Z" fill="#FF9C27"/>
<path d="M242.167 192.628C242.167 200.073 236.131 206.108 228.687 206.108C221.242 206.108 215.207 200.073 215.207 192.628C215.207 185.184 221.242 179.148 228.687 179.148C236.131 179.148 242.167 185.184 242.167 192.628Z" fill="#FF9C27"/>
<path d="M234.999 184.809C234.999 201.986 219.809 215.911 201.07 215.911C182.331 215.911 167.141 201.986 167.141 184.809C167.141 167.632 182.331 153.707 201.07 153.707C219.809 153.707 234.999 167.632 234.999 184.809Z" fill="#FFBA68"/>
<mask id="mask2_1_316" style="mask-type:alpha" maskUnits="userSpaceOnUse" x="167" y="153" width="68" height="63">
<path d="M234.999 184.803C234.999 201.98 219.809 215.905 201.07 215.905C182.331 215.905 167.141 201.98 167.141 184.803C167.141 167.626 182.331 153.702 201.07 153.702C219.809 153.702 234.999 167.626 234.999 184.803Z" fill="#FFAB49"/>
</mask>
<g mask="url(#mask2_1_316)">
<path d="M189.356 200.782C189.356 208.045 183.427 213.933 176.113 213.933C168.8 213.933 162.871 208.045 162.871 200.782C162.871 193.519 168.8 187.631 176.113 187.631C183.427 187.631 189.356 193.519 189.356 200.782Z" fill="#FF9A24"/>
<path d="M238.723 200.782C238.723 208.045 232.794 213.933 225.48 213.933C218.166 213.933 212.237 208.045 212.237 200.782C212.237 193.519 218.166 187.631 225.48 187.631C232.794 187.631 238.723 193.519 238.723 200.782Z" fill="#FF9A24"/>
<path d="M213.793 189.181C213.793 190.667 212.528 191.872 210.966 191.872C209.404 191.872 208.139 190.667 208.139 189.181C208.139 187.695 209.404 186.49 210.966 186.49C212.528 186.49 213.793 187.695 213.793 189.181Z" fill="black"/>
<path fill-rule="evenodd" clip-rule="evenodd" d="M212.412 185.336C212.689 185.827 212.495 186.438 211.979 186.702C211.698 186.845 211.273 187.138 210.971 187.504C210.671 187.868 210.588 188.174 210.655 188.442C210.791 188.984 210.44 189.528 209.87 189.658C209.301 189.787 208.729 189.453 208.593 188.911C208.318 187.819 208.782 186.888 209.304 186.256C209.824 185.627 210.496 185.168 210.976 184.923C211.492 184.66 212.135 184.844 212.412 185.336Z" fill="black"/>
</g>
<path d="M202.484 194.699C202.484 195.48 201.851 196.113 201.07 196.113C200.289 196.113 199.656 195.48 199.656 194.699C199.656 193.919 200.289 193.286 201.07 193.286C201.851 193.286 202.484 193.919 202.484 194.699Z" fill="black"/>
<path fill-rule="evenodd" clip-rule="evenodd" d="M188.378 186.908C188.504 186.407 188.977 186.113 189.433 186.251L194.678 187.848C195.639 188.14 195.668 189.625 194.719 189.962L189.468 191.826C189.017 191.986 188.534 191.714 188.388 191.219C188.243 190.724 188.49 190.193 188.941 190.033L191.937 188.969L188.975 188.068C188.519 187.929 188.251 187.41 188.378 186.908Z" fill="black"/>
<path fill-rule="evenodd" clip-rule="evenodd" d="M189.455 181.17C188.44 181.322 187.619 181.849 187.202 182.258C186.812 182.641 186.185 182.635 185.802 182.245C185.419 181.855 185.425 181.228 185.816 180.845C186.486 180.188 187.677 179.435 189.163 179.213C190.694 178.984 192.474 179.331 194.214 180.794C194.632 181.146 194.686 181.77 194.335 182.189C193.983 182.607 193.359 182.661 192.94 182.309C191.635 181.212 190.425 181.025 189.455 181.17Z" fill="#905A09"/>
<path fill-rule="evenodd" clip-rule="evenodd" d="M210.661 181.17C209.646 181.322 208.825 181.849 208.407 182.258C208.017 182.641 207.391 182.635 207.008 182.245C206.625 181.855 206.631 181.228 207.021 180.845C207.692 180.188 208.882 179.435 210.369 179.213C211.899 178.984 213.68 179.331 215.42 180.794C215.838 181.146 215.892 181.77 215.54 182.189C215.189 182.607 214.564 182.661 214.146 182.309C212.841 181.212 211.631 181.025 210.661 181.17Z" fill="#905A09"/>
<path d="M198.071 201.126C197.848 200.858 197.652 200.564 197.486 200.249C196.758 198.868 198.095 197.527 199.656 197.527L202.484 197.527C204.045 197.527 205.382 198.868 204.654 200.249C204.488 200.564 204.292 200.858 204.069 201.126C203.274 202.08 202.195 202.616 201.07 202.616C199.945 202.616 198.866 202.08 198.071 201.126Z" fill="#E16037"/>
<path fill-rule="evenodd" clip-rule="evenodd" d="M214.244 149.354C214.317 148.78 214.355 148.195 214.355 147.601C214.355 140.039 208.269 133.91 200.761 133.91C193.254 133.91 187.168 140.039 187.168 147.601C187.168 148.157 187.201 148.706 187.265 149.245C174.35 153.473 165.247 163.665 165.247 175.566C165.247 179.879 166.443 183.968 168.583 187.63C169.575 185.934 170.769 184.329 172.141 182.835L188.087 184.057L190.279 172.514C190.7 172.411 191.124 172.314 191.551 172.224V184.089H209.902V172.283C210.371 172.386 210.836 172.496 211.297 172.613L213.47 184.057L229.063 182.863C230.425 184.348 231.611 185.944 232.596 187.631C234.737 183.969 235.933 179.88 235.933 175.566C235.933 163.766 226.984 153.647 214.244 149.354Z" fill="#925319"/>
<path fill-rule="evenodd" clip-rule="evenodd" d="M39.4779 14.7742C33.2776 14.7742 28.2513 19.8005 28.2513 26.0008V41.7177C28.2513 47.918 33.2776 52.9443 39.4779 52.9443H64.8465C67.092 55.4557 70.5158 57.9582 75.5713 59.7351C75.9468 59.8671 76.2627 59.2217 75.9603 58.963C74.2322 57.485 72.5004 55.3336 71.9883 52.7292C77.136 51.7072 81.0165 47.1656 81.0165 41.7177V26.0008C81.0165 19.8005 75.9902 14.7742 69.7899 14.7742H39.4779Z" fill="#337AFF"/>
<ellipse cx="43.4077" cy="34.4176" rx="3.92932" ry="3.92927" fill="white"/>
<ellipse cx="54.6347" cy="34.4176" rx="3.92932" ry="3.92927" fill="white"/>
<ellipse cx="65.8596" cy="34.4176" rx="3.92932" ry="3.92927" fill="white"/>
<path fill-rule="evenodd" clip-rule="evenodd" d="M130.58 113.269C136.78 113.269 141.806 118.296 141.806 124.496V140.213C141.806 146.413 136.78 151.439 130.58 151.439H105.211C102.966 153.951 99.5418 156.453 94.4863 158.23C94.1109 158.362 93.7949 157.717 94.0973 157.458C95.8254 155.98 97.5573 153.829 98.0694 151.224C92.9217 150.202 89.0412 145.661 89.0412 140.213V124.496C89.0412 118.296 94.0675 113.269 100.268 113.269H130.58Z" fill="#337AFF"/>
<ellipse cx="3.92932" cy="3.92927" rx="3.92932" ry="3.92927" transform="matrix(-1 0 0 1 130.579 128.983)" fill="white"/>
<ellipse cx="3.92932" cy="3.92927" rx="3.92932" ry="3.92927" transform="matrix(-1 0 0 1 119.352 128.983)" fill="white"/>
<ellipse cx="3.92932" cy="3.92927" rx="3.92932" ry="3.92927" transform="matrix(-1 0 0 1 108.127 128.983)" fill="white"/>
</svg>
