<svg width="58" height="44" viewBox="0 0 58 44" fill="none" xmlns="http://www.w3.org/2000/svg">
<path d="M19.0699 27.5349C19.0699 32.8009 14.8009 37.0699 9.53494 37.0699C4.26894 37.0699 7.38727e-08 32.8009 4.75897e-08 27.5349C2.13066e-08 22.2689 4.26894 18 9.53494 18C14.8009 18 19.0699 22.2689 19.0699 27.5349Z" fill="#65B118"/>
<path d="M58.0015 27.5349C58.0015 32.8009 53.7326 37.0699 48.4666 37.0699C43.2006 37.0699 38.9316 32.8009 38.9316 27.5349C38.9316 22.2689 43.2006 18 48.4666 18C53.7326 18 58.0015 22.2689 58.0015 27.5349Z" fill="#65B118"/>
<path d="M53 22.0039C53 34.1542 42.2548 44.0039 29 44.0039C15.7452 44.0039 5 34.1542 5 22.0039C5 9.85364 15.7452 0.0039062 29 0.00390613C42.2548 0.00390606 53 9.85364 53 22.0039Z" fill="#AAD77D"/>
<mask id="mask0_93_19481" style="mask-type:alpha" maskUnits="userSpaceOnUse" x="5" y="0" width="48" height="44">
<path d="M53 22C53 34.1503 42.2548 44 29 44C15.7452 44 5 34.1503 5 22C5 9.84974 15.7452 -5.363e-08 29 -1.19786e-07C42.2548 -1.85942e-07 53 9.84974 53 22Z" fill="#FFAB49"/>
</mask>
<g mask="url(#mask0_93_19481)">
<path d="M20.7139 33.3024C20.7139 38.4399 16.5199 42.6048 11.3464 42.6048C6.17295 42.6048 1.979 38.4399 1.979 33.3024C1.979 28.1648 6.17295 24 11.3464 24C16.5199 24 20.7139 28.1648 20.7139 33.3024Z" fill="#79C42E"/>
<path d="M55.6343 33.3024C55.6343 38.4399 51.4403 42.6048 46.2668 42.6048C41.0934 42.6048 36.8994 38.4399 36.8994 33.3024C36.8994 28.1648 41.0934 24 46.2668 24C51.4403 24 55.6343 28.1648 55.6343 33.3024Z" fill="#79C42E"/>
</g>
</svg>
