<svg width="16" height="16" viewBox="0 0 16 16" fill="none" xmlns="http://www.w3.org/2000/svg">
<path d="M4.8002 4.8L6.6911 4H9.74565L11.4911 5.26316L12.4002 6.4L12.8002 7.78947L12.4002 8.8L11.2002 10.4L8.4002 11.6L5.81838 11.5789L4.8002 11.6L3.63656 9.05263L3.2002 7.6L4.8002 4.8Z" fill="#337AFF"/>
<mask id="path-2-inside-1_602_61" fill="white">
<path fill-rule="evenodd" clip-rule="evenodd" d="M8.0004 11.95C10.6808 11.95 12.8537 10.0627 12.8537 7.7347C12.8537 5.40666 10.6808 3.51941 8.0004 3.51941C5.3682 3.51941 3.22541 5.33937 3.14917 7.6095C3.14725 7.65869 3.14664 7.70808 3.14714 7.75759C3.14811 7.91614 3.15916 8.07261 3.17976 8.22655C3.19122 8.3241 3.20489 8.42119 3.21943 8.51726C3.32453 9.20852 3.64608 9.80905 4.11067 10.3159C4.30627 10.5294 4.37425 10.7653 4.39427 11.0228C4.43263 11.5168 4.37678 12.0008 4.12628 12.478C4.12617 12.4782 4.12617 12.4784 4.12627 12.4786C4.12642 12.4789 4.12676 12.4791 4.12709 12.479C4.15092 12.4738 4.16919 12.4701 4.18396 12.4672C4.20693 12.4626 4.22146 12.4597 4.23537 12.4551C4.71207 12.3023 5.13246 12.055 5.47319 11.6815C5.59288 11.5503 5.72134 11.5254 5.88524 11.5824C6.38026 11.7537 6.88917 11.8818 7.40876 11.919C7.60268 11.9394 7.80012 11.95 8.0004 11.95Z"/>
</mask>
<path d="M3.14917 7.6095L3.89528 7.63856L3.89542 7.63457L3.14917 7.6095ZM3.14714 7.75759L3.8938 7.75302L3.89377 7.75L3.14714 7.75759ZM3.17976 8.22655L3.92141 8.13938L3.91983 8.12753L3.17976 8.22655ZM3.21943 8.51726L2.48116 8.62897L2.48124 8.62949L3.21943 8.51726ZM4.11067 10.3159L4.66127 9.81156L4.66109 9.81135L4.11067 10.3159ZM4.39427 11.0228L5.1387 10.965L5.13869 10.9649L4.39427 11.0228ZM4.12628 12.478L4.78709 12.8256L4.78739 12.825L4.12628 12.478ZM4.12627 12.4786L3.45698 12.8096L3.45726 12.8102L4.12627 12.4786ZM4.12709 12.479L4.28667 13.2084L4.28753 13.2082L4.12709 12.479ZM4.18396 12.4672L4.0378 11.735L4.0378 11.735L4.18396 12.4672ZM4.23537 12.4551L4.00749 11.744L4.00061 11.7463L4.23537 12.4551ZM5.47319 11.6815L6.02479 12.1848L6.02488 12.1847L5.47319 11.6815ZM5.88524 11.5824L5.64009 12.2876L5.64097 12.2879L5.88524 11.5824ZM7.40876 11.919L7.48714 11.1764L7.47461 11.1751L7.46205 11.1742L7.40876 11.919ZM12.1071 7.7347C12.1071 9.55502 10.3707 11.2033 8.0004 11.2033V12.6967C10.9909 12.6967 13.6004 10.5705 13.6004 7.7347H12.1071ZM8.0004 4.26608C10.3707 4.26608 12.1071 5.91437 12.1071 7.7347H13.6004C13.6004 4.89894 10.9909 2.77274 8.0004 2.77274V4.26608ZM3.89542 7.63457C3.95513 5.8563 5.67485 4.26608 8.0004 4.26608V2.77274C5.06154 2.77274 2.49568 4.82244 2.40292 7.58444L3.89542 7.63457ZM3.89377 7.75C3.89338 7.71172 3.89387 7.67459 3.89527 7.63856L2.40307 7.58045C2.40064 7.64279 2.39989 7.70444 2.40051 7.76519L3.89377 7.75ZM3.91983 8.12753C3.9034 8.00477 3.89457 7.87984 3.89379 7.75302L2.40049 7.76216C2.40165 7.95244 2.41492 8.14046 2.43969 8.32558L3.91983 8.12753ZM3.95769 8.40555C3.94389 8.31431 3.93149 8.22595 3.92132 8.13939L2.4382 8.31372C2.45095 8.42224 2.4659 8.52808 2.48117 8.62897L3.95769 8.40555ZM4.66109 9.81135C4.28087 9.39657 4.03717 8.92832 3.95761 8.40503L2.48124 8.62949C2.61188 9.48872 3.01128 10.2215 3.56026 10.8204L4.66109 9.81135ZM5.13869 10.9649C5.11036 10.6006 5.0041 10.1858 4.66127 9.81156L3.56008 10.8202C3.59136 10.8544 3.60745 10.8836 3.61871 10.9138C3.63143 10.9479 3.64346 10.9985 3.64985 11.0807L5.13869 10.9649ZM4.78739 12.825C5.12008 12.1913 5.18473 11.5579 5.1387 10.965L3.64984 11.0806C3.68053 11.4758 3.63348 11.8103 3.46517 12.1309L4.78739 12.825ZM4.79555 12.1476C4.90226 12.3634 4.89763 12.6155 4.78709 12.8256L3.46546 12.1304C3.35471 12.3409 3.35007 12.5935 3.45698 12.8096L4.79555 12.1476ZM3.96751 11.7496C4.29013 11.679 4.63794 11.8296 4.79528 12.1471L3.45726 12.8102C3.61489 13.1283 3.96339 13.2792 4.28667 13.2084L3.96751 11.7496ZM4.0378 11.735C4.02238 11.738 3.99807 11.7429 3.96665 11.7498L4.28753 13.2082C4.30378 13.2047 4.31599 13.2022 4.33012 13.1994L4.0378 11.735ZM4.00061 11.7463C4.02363 11.7387 4.04123 11.7345 4.04753 11.7331C4.05039 11.7324 4.05153 11.7322 4.0494 11.7326C4.04708 11.7331 4.04408 11.7337 4.0378 11.735L4.33012 13.1994C4.33928 13.1976 4.40353 13.186 4.47013 13.1639L4.00061 11.7463ZM4.92159 11.1783C4.68138 11.4416 4.37912 11.625 4.0075 11.744L4.46325 13.1661C5.04501 12.9797 5.58353 12.6684 6.02479 12.1848L4.92159 11.1783ZM6.13039 10.8771C5.96149 10.8184 5.7404 10.7774 5.49558 10.8336C5.24559 10.891 5.05708 11.0297 4.9215 11.1784L6.02488 12.1847C6.009 12.2021 5.94456 12.2627 5.82969 12.2891C5.72 12.3143 5.64508 12.2894 5.64009 12.2876L6.13039 10.8771ZM7.46205 11.1742C7.02809 11.1432 6.58593 11.0348 6.12951 10.8768L5.64097 12.2879C6.17458 12.4727 6.75024 12.6204 7.35547 12.6637L7.46205 11.1742ZM8.0004 11.2033C7.82632 11.2033 7.65503 11.1942 7.48714 11.1764L7.33038 12.6615C7.55032 12.6847 7.77393 12.6967 8.0004 12.6967V11.2033Z" fill="#337AFF" mask="url(#path-2-inside-1_602_61)"/>
<ellipse cx="6.33098" cy="7.78447" rx="0.455" ry="0.473806" fill="white"/>
<ellipse cx="8.15129" cy="7.78447" rx="0.455" ry="0.473806" fill="white"/>
<ellipse cx="9.9716" cy="7.78447" rx="0.455" ry="0.473806" fill="white"/>
</svg>
