<svg width="26" height="24" viewBox="0 0 26 24" fill="none" xmlns="http://www.w3.org/2000/svg">
<mask id="path-1-inside-1_11_65" fill="white">
<path fill-rule="evenodd" clip-rule="evenodd" d="M13 22.5819C20.1797 22.5819 26 17.5268 26 11.2909C26 5.05513 20.1797 0 13 0C5.92298 0 0.166752 4.91157 0.00355812 11.0241C0.00102925 11.1085 -0.000112932 11.193 8.77832e-06 11.2777C2.92664e-06 11.2821 0 11.2865 0 11.2909C0 11.7397 0.0301375 12.1823 0.0887504 12.6173C0.119268 12.8759 0.155537 13.1334 0.194078 13.3881C0.47559 15.2397 1.33688 16.8482 2.58134 18.2058C3.10527 18.7778 3.28735 19.4097 3.34098 20.0993C3.44373 21.4227 3.29413 22.7189 2.62314 23.9971C2.62299 23.9974 2.62291 23.9977 2.62291 23.9981C2.62292 23.9984 2.62298 23.9986 2.62312 23.9989C2.62351 23.9997 2.62443 24.0001 2.62531 23.9999C2.68916 23.9859 2.73808 23.9761 2.77765 23.9682C2.83917 23.956 2.87808 23.9482 2.91536 23.9358C4.19221 23.5266 5.31826 22.8642 6.23094 21.8638C6.55155 21.5123 6.89562 21.4456 7.33464 21.5982C8.66938 22.0603 10.0418 22.4048 11.4432 22.5018C11.9536 22.5547 12.4732 22.5819 13 22.5819Z"/>
</mask>
<path d="M0.00355812 11.0241L2.00267 11.0841L2.00285 11.0775L0.00355812 11.0241ZM8.77832e-06 11.2777L2.00001 11.2803L2.00001 11.2748L8.77832e-06 11.2777ZM0.0887504 12.6173L2.07497 12.3829L2.07304 12.3666L2.07084 12.3503L0.0887504 12.6173ZM0.194078 13.3881L-1.78341 13.6873L-1.7832 13.6887L0.194078 13.3881ZM2.58134 18.2058L4.05615 16.8549L4.05566 16.8544L2.58134 18.2058ZM3.34098 20.0993L5.33497 19.9444L5.33496 19.9442L3.34098 20.0993ZM2.62314 23.9971L4.3937 24.9272L4.39397 24.9267L2.62314 23.9971ZM2.62291 23.9981L0.623056 24.0219L0.623068 24.0229L2.62291 23.9981ZM2.62312 23.9989L4.41557 23.1117L4.41456 23.1097L2.62312 23.9989ZM2.62531 23.9999L3.055 25.9532L3.05505 25.9532L2.62531 23.9999ZM2.77765 23.9682L2.38625 22.0069L2.38618 22.0069L2.77765 23.9682ZM2.91536 23.9358L2.30498 22.0313L2.29576 22.0342L2.28658 22.0373L2.91536 23.9358ZM6.23094 21.8638L7.70845 23.2118L7.70869 23.2115L6.23094 21.8638ZM7.33464 21.5982L6.67798 23.4873L6.68035 23.4881L7.33464 21.5982ZM11.4432 22.5018L11.6494 20.5124L11.6154 20.5089L11.5813 20.5065L11.4432 22.5018ZM24 11.2909C24 16.1668 19.3491 20.5819 13 20.5819V24.5819C21.0103 24.5819 28 18.8867 28 11.2909H24ZM13 2C19.3491 2 24 6.41508 24 11.2909H28C28 3.69518 21.0103 -2 13 -2V2ZM2.00285 11.0775C2.13063 6.29122 6.74628 2 13 2V-2C5.09967 -2 -1.79713 3.53192 -1.99573 10.9708L2.00285 11.0775ZM2.00001 11.2748C1.99991 11.21 2.00079 11.1464 2.00266 11.0841L-1.99554 10.9642C-1.99873 11.0705 -2.00014 11.176 -1.99999 11.2806L2.00001 11.2748ZM2 11.2909C2 11.2874 2 11.2839 2.00001 11.2803L-1.99999 11.275C-2 11.2803 -2 11.2856 -2 11.2909H2ZM2.07084 12.3503C2.0241 12.0034 2 11.65 2 11.2909H-2C-2 11.8294 -1.96383 12.3612 -1.89334 12.8844L2.07084 12.3503ZM2.17157 13.0889C2.13497 12.8469 2.10207 12.6126 2.07497 12.3829L-1.89747 12.8517C-1.86353 13.1393 -1.82389 13.4198 -1.78341 13.6873L2.17157 13.0889ZM4.05566 16.8544C3.03722 15.7434 2.38446 14.4891 2.17136 13.0875L-1.7832 13.6887C-1.43328 15.9902 -0.36346 17.9531 1.10702 19.5573L4.05566 16.8544ZM5.33496 19.9442C5.25909 18.9685 4.97445 17.8575 4.05615 16.8549L1.10653 19.5567C1.19032 19.6482 1.23342 19.7264 1.26358 19.8073C1.29766 19.8987 1.32988 20.0342 1.347 20.2543L5.33496 19.9442ZM4.39397 24.9267C5.2851 23.2292 5.45829 21.5327 5.33497 19.9444L1.34698 20.2541C1.42917 21.3126 1.30315 22.2087 0.852306 23.0675L4.39397 24.9267ZM4.62277 23.9743C4.62664 24.299 4.5512 24.6274 4.3937 24.9272L0.852581 23.067C0.694767 23.3674 0.619182 23.6964 0.623056 24.0219L4.62277 23.9743ZM4.41456 23.1097C4.55196 23.3865 4.61915 23.6827 4.62276 23.9732L0.623068 24.0229C0.626683 24.314 0.694012 24.6108 0.831672 24.8881L4.41456 23.1097ZM2.19562 22.0466C3.06065 21.8563 3.99398 22.2599 4.41557 23.1117L0.830656 24.8861C1.25305 25.7395 2.18822 26.1439 3.055 25.9532L2.19562 22.0466ZM2.38618 22.0069C2.34485 22.0152 2.27974 22.0281 2.19557 22.0467L3.05505 25.9532C3.09858 25.9436 3.13131 25.9371 3.16912 25.9295L2.38618 22.0069ZM2.28658 22.0373C2.3482 22.0168 2.39531 22.0057 2.41223 22.0018C2.41989 22.0001 2.42294 21.9995 2.41727 22.0007C2.41107 22.0019 2.40303 22.0036 2.38625 22.0069L3.16905 25.9296C3.19373 25.9246 3.36576 25.8935 3.54414 25.8344L2.28658 22.0373ZM4.75343 20.5159C4.11002 21.2211 3.30039 21.7122 2.30498 22.0313L3.52574 25.8404C5.08403 25.341 6.5265 24.5073 7.70845 23.2118L4.75343 20.5159ZM7.9913 19.709C7.5389 19.5518 6.94667 19.4421 6.29092 19.5926C5.62129 19.7463 5.11635 20.1179 4.75318 20.5161L7.70869 23.2115C7.66614 23.2582 7.49353 23.4206 7.18585 23.4912C6.89204 23.5587 6.69136 23.4919 6.67798 23.4873L7.9913 19.709ZM11.5813 20.5065C10.4116 20.4256 9.21966 20.1343 7.98893 19.7082L6.68035 23.4881C8.1191 23.9862 9.67204 24.384 11.3051 24.497L11.5813 20.5065ZM13 20.5819C12.5421 20.5819 12.0914 20.5582 11.6494 20.5124L11.237 24.4911C11.8159 24.5511 12.4043 24.5819 13 24.5819V20.5819Z" fill="white" mask="url(#path-1-inside-1_11_65)"/>
<ellipse cx="8.53125" cy="11.4221" rx="1.21875" ry="1.26912" fill="white"/>
<ellipse cx="13.4062" cy="11.4221" rx="1.21875" ry="1.26912" fill="white"/>
<ellipse cx="18.2812" cy="11.4221" rx="1.21875" ry="1.26912" fill="white"/>
</svg>
