<svg width="12" height="12" viewBox="0 0 12 12" fill="none" xmlns="http://www.w3.org/2000/svg">
<path d="M10.8212 1.17882C10.981 1.33865 11.0708 1.55543 11.0708 1.78147C11.0708 2.0075 10.981 2.22428 10.8212 2.38411L7.2053 6L10.8212 9.61589C10.981 9.77572 11.0708 9.9925 11.0708 10.2185C11.0708 10.4446 10.981 10.6613 10.8212 10.8212C10.6614 10.981 10.4446 11.0708 10.2185 11.0708C9.9925 11.0708 9.77572 10.981 9.61588 10.8212L6 7.2053L2.38411 10.8212C2.22428 10.981 2.0075 11.0708 1.78147 11.0708C1.55543 11.0708 1.33865 10.981 1.17882 10.8212C1.01899 10.6613 0.929194 10.4446 0.929194 10.2185C0.929194 9.9925 1.01899 9.77572 1.17882 9.61589L4.7947 6L1.17882 2.38411C1.01899 2.22428 0.929194 2.0075 0.929194 1.78147C0.929194 1.55543 1.01899 1.33865 1.17882 1.17882C1.33865 1.01899 1.55543 0.929192 1.78147 0.929192C2.0075 0.929192 2.22428 1.01899 2.38411 1.17882L6 4.7947L9.61588 1.17882C9.77572 1.01899 9.9925 0.929192 10.2185 0.929192C10.4446 0.929192 10.6614 1.01899 10.8212 1.17882Z" fill="#669BFF"/>
</svg>
