<svg width="12" height="13" viewBox="0 0 12 13" fill="none" xmlns="http://www.w3.org/2000/svg">
<mask id="mask0_1_9" style="mask-type:luminance" maskUnits="userSpaceOnUse" x="0" y="0" width="12" height="13">
<path fill-rule="evenodd" clip-rule="evenodd" d="M0 0H11.714V12.9133H0V0Z" fill="white"/>
</mask>
<g mask="url(#mask0_1_9)">
<path fill-rule="evenodd" clip-rule="evenodd" d="M7.5753 1.37489L1.15598 9.4033C1.03939 9.54921 0.996433 9.73739 1.03939 9.91807L1.50371 11.8851L3.57575 11.8592C3.7728 11.8572 3.95484 11.7692 4.07552 11.6192C6.26893 8.87489 10.4505 3.64262 10.5692 3.48921C10.681 3.30784 10.7246 3.05148 10.666 2.80466C10.606 2.55171 10.4485 2.33694 10.2214 2.19989C10.173 2.16648 9.02416 1.27466 8.98871 1.24671C8.55643 0.900344 7.92575 0.960344 7.5753 1.37489V1.37489ZM1.10031 12.9134C0.863724 12.9134 0.657815 12.7512 0.602587 12.52L0.0441782 10.1534C-0.0710491 9.66321 0.0434963 9.1573 0.357815 8.76457L6.78054 0.731392C6.78327 0.728664 6.78531 0.725255 6.78804 0.722528C7.49236 -0.119517 8.766 -0.243608 9.62509 0.44571C9.65918 0.472301 10.7999 1.35866 10.7999 1.35866C11.2144 1.60548 11.5383 2.04662 11.661 2.56889C11.783 3.08571 11.6944 3.61889 11.4101 4.06957C11.389 4.10298 11.3705 4.13162 4.87418 12.2589C4.56122 12.6489 4.09213 12.8759 3.58827 12.8821L1.10713 12.9134H1.10031Z" fill="#669BFF"/>
</g>
<path fill-rule="evenodd" clip-rule="evenodd" d="M9.69743 5.92146C9.58834 5.92146 9.47925 5.88668 9.38584 5.81577L5.66857 2.96032C5.44493 2.7885 5.40266 2.46805 5.57448 2.24305C5.74698 2.01941 6.06743 1.97782 6.29175 2.14964L10.0097 5.00441C10.2333 5.17623 10.2756 5.49736 10.1031 5.72168C10.0029 5.85259 9.85084 5.92146 9.69743 5.92146" fill="#669BFF"/>
</svg>
