<svg width="17" height="18" viewBox="0 0 17 18" fill="none" xmlns="http://www.w3.org/2000/svg">
<mask id="mask0_35_3007" style="mask-type:luminance" maskUnits="userSpaceOnUse" x="1" y="2" width="13" height="14">
<path fill-rule="evenodd" clip-rule="evenodd" d="M1.5459 2.86377H13.2599V15.7771H1.5459V2.86377Z" fill="white"/>
</mask>
<g mask="url(#mask0_35_3007)">
<path fill-rule="evenodd" clip-rule="evenodd" d="M9.12084 4.23861L2.70152 12.267C2.58493 12.4129 2.54198 12.6011 2.58493 12.7818L3.04925 14.7488L5.12129 14.7229C5.31834 14.7209 5.50039 14.6329 5.62107 14.4829C7.81448 11.7386 11.9961 6.50634 12.1147 6.35293C12.2265 6.17157 12.2702 5.91521 12.2115 5.66839C12.1515 5.41543 11.994 5.20066 11.767 5.06361C11.7186 5.03021 10.5697 4.13839 10.5342 4.11043C10.102 3.76407 9.47129 3.82407 9.12084 4.23861ZM2.64586 15.7772C2.40927 15.7772 2.20336 15.6149 2.14813 15.3838L1.58972 13.0172C1.47449 12.5269 1.58904 12.021 1.90336 11.6283L8.32609 3.59512C8.32881 3.59239 8.33086 3.58898 8.33359 3.58625C9.0379 2.74421 10.3115 2.62012 11.1706 3.30944C11.2047 3.33603 12.3454 4.22239 12.3454 4.22239C12.7599 4.46921 13.0838 4.91034 13.2065 5.43262C13.3286 5.94944 13.2399 6.48262 12.9556 6.9333C12.9345 6.96671 12.9161 6.99534 6.41972 15.1226C6.10677 15.5126 5.63768 15.7397 5.13381 15.7458L2.65268 15.7772H2.64586Z" fill="#669BFF"/>
</g>
<path fill-rule="evenodd" clip-rule="evenodd" d="M11.2432 8.78518C11.1341 8.78518 11.0251 8.75041 10.9316 8.6795L7.21438 5.82404C6.99074 5.65223 6.94847 5.33177 7.12029 5.10677C7.29279 4.88314 7.61324 4.84154 7.83756 5.01336L11.5555 7.86814C11.7791 8.03995 11.8214 8.36109 11.6489 8.58541C11.5487 8.71632 11.3966 8.78518 11.2432 8.78518Z" fill="#669BFF"/>
</svg>
