<svg width="30" height="30" viewBox="0 0 30 30" fill="none" xmlns="http://www.w3.org/2000/svg">
<path d="M10.7446 20.3716C10.7446 22.6284 8.91504 24.458 6.65818 24.458C4.40132 24.458 2.57178 22.6284 2.57178 20.3716C2.57178 18.1147 4.40132 16.2852 6.65818 16.2852C8.91504 16.2852 10.7446 18.1147 10.7446 20.3716Z" fill="#999999"/>
<path d="M27.4589 20.3716C27.4589 22.6284 25.6294 24.458 23.3725 24.458C21.1157 24.458 19.2861 22.6284 19.2861 20.3716C19.2861 18.1147 21.1157 16.2852 23.3725 16.2852C25.6294 16.2852 27.4589 18.1147 27.4589 20.3716Z" fill="#999999"/>
<path d="M25.2863 18.0018C25.2863 23.2091 20.6812 27.4304 15.0006 27.4304C9.31991 27.4304 4.71484 23.2091 4.71484 18.0018C4.71484 12.7946 9.31991 8.57324 15.0006 8.57324C20.6812 8.57324 25.2863 12.7946 25.2863 18.0018Z" fill="#999999"/>
<mask id="mask0_35_4716" style="mask-type:alpha" maskUnits="userSpaceOnUse" x="4" y="8" width="22" height="20">
<path d="M25.2868 17.9999C25.2868 23.2071 20.6817 27.4284 15.001 27.4284C9.3204 27.4284 4.71533 23.2071 4.71533 17.9999C4.71533 12.7926 9.3204 8.57129 15.001 8.57129C20.6817 8.57129 25.2868 12.7926 25.2868 17.9999Z" fill="#999999"/>
</mask>
<g mask="url(#mask0_35_4716)">
<path d="M11.4501 22.8442C11.4501 25.046 9.65272 26.8309 7.43551 26.8309C5.2183 26.8309 3.4209 25.046 3.4209 22.8442C3.4209 20.6423 5.2183 18.8574 7.43551 18.8574C9.65272 18.8574 11.4501 20.6423 11.4501 22.8442Z" fill="#999999"/>
<path d="M26.4159 22.8442C26.4159 25.046 24.6185 26.8309 22.4013 26.8309C20.1841 26.8309 18.3867 25.046 18.3867 22.8442C18.3867 20.6423 20.1841 18.8574 22.4013 18.8574C24.6185 18.8574 26.4159 20.6423 26.4159 22.8442Z" fill="#999999"/>
<path d="M18.8583 19.3271C18.8583 19.7776 18.4746 20.1429 18.0012 20.1429C17.5278 20.1429 17.144 19.7776 17.144 19.3271C17.144 18.8766 17.5278 18.5114 18.0012 18.5114C18.4746 18.5114 18.8583 18.8766 18.8583 19.3271Z" fill="#999999"/>
<path fill-rule="evenodd" clip-rule="evenodd" d="M18.4395 18.1613C18.5234 18.3102 18.4647 18.4956 18.3082 18.5755C18.2232 18.6189 18.0944 18.7078 18.0027 18.8187C17.9116 18.9289 17.8866 19.0219 17.9069 19.103C17.9482 19.2673 17.8417 19.4323 17.669 19.4716C17.4964 19.5109 17.323 19.4095 17.2817 19.2452C17.1985 18.9142 17.3392 18.6319 17.4974 18.4405C17.655 18.2498 17.8589 18.1107 18.0043 18.0364C18.1607 17.9565 18.3556 18.0125 18.4395 18.1613Z" fill="#999999"/>
</g>
<path d="M15.4289 20.9999C15.4289 21.2366 15.237 21.4284 15.0003 21.4284C14.7637 21.4284 14.5718 21.2366 14.5718 20.9999C14.5718 20.7632 14.7637 20.5713 15.0003 20.5713C15.237 20.5713 15.4289 20.7632 15.4289 20.9999Z" fill="#999999"/>
<path fill-rule="evenodd" clip-rule="evenodd" d="M11.1531 18.6382C11.1914 18.4862 11.3346 18.397 11.473 18.4391L13.0631 18.923C13.3543 19.0116 13.363 19.4619 13.0755 19.564L11.4836 20.1291C11.3469 20.1776 11.2004 20.0952 11.1562 19.9451C11.1121 19.7949 11.1871 19.6339 11.3237 19.5854L12.2319 19.263L11.3342 18.9898C11.1959 18.9477 11.1147 18.7903 11.1531 18.6382Z" fill="#999999"/>
<path fill-rule="evenodd" clip-rule="evenodd" d="M11.4793 16.8981C11.1716 16.944 10.9227 17.1038 10.7962 17.2279C10.6779 17.3439 10.488 17.3421 10.372 17.2238C10.2559 17.1055 10.2578 16.9156 10.376 16.7996C10.5793 16.6002 10.9402 16.3719 11.3907 16.3047C11.8548 16.2354 12.3946 16.3405 12.9221 16.7841C13.0489 16.8907 13.0652 17.08 12.9586 17.2068C12.852 17.3336 12.6627 17.35 12.5359 17.2433C12.1403 16.9107 11.7735 16.8542 11.4793 16.8981Z" fill="#999999"/>
<path fill-rule="evenodd" clip-rule="evenodd" d="M17.908 16.8981C17.6003 16.944 17.3514 17.1038 17.2249 17.2279C17.1067 17.3439 16.9167 17.3421 16.8007 17.2238C16.6847 17.1055 16.6865 16.9156 16.8048 16.7996C17.008 16.6002 17.369 16.3719 17.8195 16.3047C18.2835 16.2354 18.8233 16.3405 19.3508 16.7841C19.4776 16.8907 19.4939 17.08 19.3873 17.2068C19.2807 17.3336 19.0914 17.35 18.9646 17.2433C18.5691 16.9107 18.2022 16.8542 17.908 16.8981Z" fill="#999999"/>
<path d="M14.0913 22.9475C14.0237 22.8664 13.9644 22.7771 13.914 22.6817C13.6932 22.263 14.0985 21.8566 14.5718 21.8566L15.429 21.8566C15.9024 21.8566 16.3077 22.263 16.0868 22.6817C16.0365 22.7771 15.9772 22.8664 15.9096 22.9475C15.6684 23.2369 15.3414 23.3994 15.0004 23.3994C14.6594 23.3994 14.3324 23.2369 14.0913 22.9475Z" fill="#999999"/>
<path fill-rule="evenodd" clip-rule="evenodd" d="M19.1388 7.25333C19.1609 7.0793 19.1723 6.9019 19.1723 6.72183C19.1723 4.42955 17.3273 2.57129 15.0514 2.57129C12.7755 2.57129 10.9305 4.42955 10.9305 6.72183C10.9305 6.89047 10.9405 7.05677 10.9599 7.22015C7.04484 8.50209 4.28516 11.5917 4.28516 15.1994C4.28516 16.5071 4.64774 17.7467 5.29649 18.8569C5.59479 18.3465 5.95357 17.8634 6.36543 17.4138L11.0637 17.7735L11.721 14.3128C11.8984 14.267 12.078 14.2248 12.2593 14.1863V17.7833H17.8225V14.2043C17.913 14.2241 18.003 14.2448 18.0925 14.2665L18.7586 17.7735L23.6216 17.4011C24.0384 17.8545 24.4012 18.3418 24.7023 18.8571C25.3511 17.7469 25.7137 16.5072 25.7137 15.1994C25.7137 11.6224 23.0009 8.55479 19.1388 7.25333Z" fill="#999999"/>
</svg>
