<svg width="58" height="44" viewBox="0 0 58 44" fill="none" xmlns="http://www.w3.org/2000/svg">
<path d="M19.0699 27.5349C19.0699 32.8009 14.8009 37.0699 9.53494 37.0699C4.26894 37.0699 7.38727e-08 32.8009 4.75897e-08 27.5349C2.13066e-08 22.2689 4.26894 18 9.53494 18C14.8009 18 19.0699 22.2689 19.0699 27.5349Z" fill="#FF9C27"/>
<path d="M58.0015 27.5349C58.0015 32.8009 53.7326 37.0699 48.4666 37.0699C43.2006 37.0699 38.9316 32.8009 38.9316 27.5349C38.9316 22.2689 43.2006 18 48.4666 18C53.7326 18 58.0015 22.2689 58.0015 27.5349Z" fill="#FF9C27"/>
<path d="M53 22.0039C53 34.1542 42.2548 44.0039 29 44.0039C15.7452 44.0039 5 34.1542 5 22.0039C5 9.85364 15.7452 0.0039062 29 0.00390613C42.2548 0.00390606 53 9.85364 53 22.0039Z" fill="#FFBA68"/>
<mask id="mask0_93_19647" style="mask-type:alpha" maskUnits="userSpaceOnUse" x="5" y="0" width="48" height="44">
<path d="M53 22C53 34.1503 42.2548 44 29 44C15.7452 44 5 34.1503 5 22C5 9.84974 15.7452 -5.363e-08 29 -1.19786e-07C42.2548 -1.85942e-07 53 9.84974 53 22Z" fill="#FFAB49"/>
</mask>
<g mask="url(#mask0_93_19647)">
<path d="M20.7139 33.3024C20.7139 38.4399 16.5199 42.6048 11.3464 42.6048C6.17295 42.6048 1.979 38.4399 1.979 33.3024C1.979 28.1648 6.17295 24 11.3464 24C16.5199 24 20.7139 28.1648 20.7139 33.3024Z" fill="#FF9A24"/>
<path d="M55.6343 33.3024C55.6343 38.4399 51.4403 42.6048 46.2668 42.6048C41.0934 42.6048 36.8994 38.4399 36.8994 33.3024C36.8994 28.1648 41.0934 24 46.2668 24C51.4403 24 55.6343 28.1648 55.6343 33.3024Z" fill="#FF9A24"/>
</g>
<path d="M30 29C30 29.5523 29.5523 30 29 30C28.4477 30 28 29.5523 28 29C28 28.4477 28.4477 28 29 28C29.5523 28 30 28.4477 30 29Z" fill="black"/>
<path fill-rule="evenodd" clip-rule="evenodd" d="M19.0266 23.4889C19.1339 23.1341 19.535 22.9261 19.9225 23.0243L24.3748 24.1533C25.1902 24.3601 25.2145 25.4107 24.4094 25.6489L19.952 26.9675C19.5694 27.0807 19.1591 26.8885 19.0355 26.5381C18.9118 26.1878 19.1218 25.8121 19.5044 25.6989L22.0475 24.9466L19.5339 24.3092C19.1464 24.211 18.9193 23.8437 19.0266 23.4889Z" fill="black"/>
<path fill-rule="evenodd" clip-rule="evenodd" d="M39.3357 23.4889C39.2284 23.1341 38.8273 22.9261 38.4398 23.0243L33.9875 24.1533C33.1721 24.3601 33.1478 25.4107 33.9529 25.6489L38.4103 26.9675C38.7929 27.0807 39.2032 26.8885 39.3269 26.5381C39.4505 26.1878 39.2405 25.8121 38.8579 25.6989L36.3148 24.9466L38.8284 24.3092C39.2159 24.211 39.443 23.8437 39.3357 23.4889Z" fill="black"/>
<rect x="21" y="32" width="16" height="5" rx="2.5" fill="white"/>
<path d="M21 34.5005L37 34.5005" stroke="#FF9A24"/>
<path d="M24.7334 32L24.7334 37" stroke="#FF9A24"/>
<path d="M29 32L29 37" stroke="#FF9A24"/>
<path d="M33.2666 32L33.2666 37" stroke="#FF9A24"/>
<path fill-rule="evenodd" clip-rule="evenodd" d="M22.0059 19.9889C22.728 20.0642 23.3835 19.848 23.7414 19.6413C24.0762 19.448 24.5043 19.5627 24.6976 19.8975C24.8909 20.2322 24.7763 20.6604 24.4415 20.8537C23.8662 21.1859 22.9177 21.4916 21.8606 21.3813C20.7718 21.2677 19.6133 20.7159 18.6796 19.4066C18.4551 19.0919 18.5283 18.6547 18.8431 18.4303C19.1578 18.2058 19.595 18.279 19.8194 18.5937C20.5196 19.5756 21.3156 19.9169 22.0059 19.9889Z" fill="#905A09"/>
<path fill-rule="evenodd" clip-rule="evenodd" d="M36.1767 19.9889C35.4546 20.0642 34.7992 19.848 34.4412 19.6413C34.1064 19.448 33.6783 19.5627 33.485 19.8975C33.2917 20.2322 33.4063 20.6604 33.7411 20.8537C34.3164 21.1859 35.2649 21.4916 36.322 21.3813C37.4108 21.2677 38.5693 20.7159 39.503 19.4066C39.7275 19.0919 39.6543 18.6547 39.3395 18.4303C39.0248 18.2058 38.5877 18.279 38.3632 18.5937C37.663 19.5756 36.8671 19.9169 36.1767 19.9889Z" fill="#905A09"/>
</svg>
