<svg width="59" height="44" viewBox="0 0 59 44" fill="none" xmlns="http://www.w3.org/2000/svg">
<path d="M19.0699 27.5349C19.0699 32.8009 14.8009 37.0699 9.53494 37.0699C4.26894 37.0699 7.38727e-08 32.8009 4.75897e-08 27.5349C2.13066e-08 22.2689 4.26894 18 9.53494 18C14.8009 18 19.0699 22.2689 19.0699 27.5349Z" fill="#FF9C27"/>
<path d="M58.0699 27.5349C58.0699 32.8009 53.8009 37.0699 48.5349 37.0699C43.2689 37.0699 39 32.8009 39 27.5349C39 22.2689 43.2689 18 48.5349 18C53.8009 18 58.0699 22.2689 58.0699 27.5349Z" fill="#FF9C27"/>
<path d="M53 22.0039C53 34.1542 42.2548 44.0039 29 44.0039C15.7452 44.0039 5 34.1542 5 22.0039C5 9.85364 15.7452 0.0039062 29 0.00390613C42.2548 0.00390606 53 9.85364 53 22.0039Z" fill="#FFBA68"/>
<mask id="mask0_93_19707" style="mask-type:alpha" maskUnits="userSpaceOnUse" x="5" y="0" width="48" height="44">
<path d="M53 22C53 34.1503 42.2548 44 29 44C15.7452 44 5 34.1503 5 22C5 9.84974 15.7452 -5.363e-08 29 -1.19786e-07C42.2548 -1.85942e-07 53 9.84974 53 22Z" fill="#FFAB49"/>
</mask>
<g mask="url(#mask0_93_19707)">
<path d="M20.7139 33.3024C20.7139 38.4399 16.5199 42.6048 11.3464 42.6048C6.17295 42.6048 1.979 38.4399 1.979 33.3024C1.979 28.1648 6.17295 24 11.3464 24C16.5199 24 20.7139 28.1648 20.7139 33.3024Z" fill="#FF9A24"/>
<path d="M55.6343 33.3024C55.6343 38.4399 51.4403 42.6048 46.2668 42.6048C41.0934 42.6048 36.8994 38.4399 36.8994 33.3024C36.8994 28.1648 41.0934 24 46.2668 24C51.4403 24 55.6343 28.1648 55.6343 33.3024Z" fill="#FF9A24"/>
<path d="M38 25.0967C38 26.1478 37.1046 27 36 27C34.8954 27 34 26.1478 34 25.0967C34 24.0455 34.8954 23.1933 36 23.1933C37.1046 23.1933 38 24.0455 38 25.0967Z" fill="black"/>
<path fill-rule="evenodd" clip-rule="evenodd" d="M37.0227 22.3764C37.2186 22.7238 37.0815 23.1564 36.7165 23.3428C36.5181 23.4441 36.2174 23.6515 36.0035 23.9103C35.791 24.1675 35.7325 24.3845 35.78 24.5736C35.8763 24.9569 35.6278 25.342 35.225 25.4337C34.8221 25.5254 34.4175 25.2889 34.3211 24.9055C34.1271 24.1331 34.4554 23.4745 34.8245 23.0279C35.1922 22.5829 35.6679 22.2582 36.0073 22.085C36.3723 21.8986 36.8269 22.0291 37.0227 22.3764Z" fill="black"/>
</g>
<path d="M30 29C30 29.5523 29.5523 30 29 30C28.4477 30 28 29.5523 28 29C28 28.4477 28.4477 28 29 28C29.5523 28 30 28.4477 30 29Z" fill="black"/>
<path fill-rule="evenodd" clip-rule="evenodd" d="M20.0222 23.4889C20.1116 23.1341 20.4458 22.9261 20.7687 23.0243L24.479 24.1533C25.1585 24.3601 25.1788 25.4107 24.5078 25.6489L20.7933 26.9675C20.4745 27.0807 20.1326 26.8885 20.0295 26.5381C19.9265 26.1878 20.1015 25.8121 20.4203 25.6989L22.5396 24.9466L20.4449 24.3092C20.122 24.211 19.9327 23.8437 20.0222 23.4889Z" fill="black"/>
<path fill-rule="evenodd" clip-rule="evenodd" d="M20.7841 19.4302C20.0661 19.5374 19.4853 19.9102 19.1902 20.1997C18.9142 20.4704 18.471 20.4662 18.2003 20.1902C17.9296 19.9142 17.9338 19.471 18.2098 19.2003C18.684 18.7351 19.5263 18.2024 20.5774 18.0455C21.6602 17.8839 22.9197 18.1292 24.1505 19.1642C24.4464 19.413 24.4846 19.8546 24.2358 20.1505C23.987 20.4464 23.5454 20.4845 23.2495 20.2357C22.3265 19.4596 21.4706 19.3277 20.7841 19.4302Z" fill="#905A09"/>
<path fill-rule="evenodd" clip-rule="evenodd" d="M35.7841 19.4302C35.0661 19.5374 34.4853 19.9102 34.1902 20.1997C33.9142 20.4704 33.471 20.4662 33.2003 20.1902C32.9296 19.9142 32.9338 19.471 33.2098 19.2003C33.684 18.7351 34.5263 18.2024 35.5774 18.0455C36.6602 17.8839 37.9197 18.1292 39.1505 19.1642C39.4464 19.413 39.4846 19.8546 39.2358 20.1505C38.987 20.4464 38.5454 20.4845 38.2495 20.2357C37.3265 19.4596 36.4706 19.3277 35.7841 19.4302Z" fill="#905A09"/>
<path d="M26.8787 33.5457C26.7209 33.3563 26.5825 33.1481 26.465 32.9254C25.9498 31.9484 26.8954 31.0001 28 31.0001L30 31.0001C31.1046 31.0001 32.0502 31.9484 31.535 32.9254C31.4175 33.1481 31.2791 33.3564 31.1213 33.5457C30.5587 34.2208 29.7956 34.6001 29 34.6001C28.2044 34.6001 27.4413 34.2208 26.8787 33.5457Z" fill="#E16037"/>
</svg>
