<svg width="58" height="44" viewBox="0 0 58 44" fill="none" xmlns="http://www.w3.org/2000/svg">
<path d="M19.0699 27.5349C19.0699 32.8009 14.8009 37.0699 9.53494 37.0699C4.26894 37.0699 7.38727e-08 32.8009 4.75897e-08 27.5349C2.13066e-08 22.2689 4.26894 18 9.53494 18C14.8009 18 19.0699 22.2689 19.0699 27.5349Z" fill="#FF9C27"/>
<path d="M58.0015 27.5349C58.0015 32.8009 53.7326 37.0699 48.4666 37.0699C43.2006 37.0699 38.9316 32.8009 38.9316 27.5349C38.9316 22.2689 43.2006 18 48.4666 18C53.7326 18 58.0015 22.2689 58.0015 27.5349Z" fill="#FF9C27"/>
<path d="M53 22.0039C53 34.1542 42.2548 44.0039 29 44.0039C15.7452 44.0039 5 34.1542 5 22.0039C5 9.85364 15.7452 0.0039062 29 0.00390613C42.2548 0.00390606 53 9.85364 53 22.0039Z" fill="#FFBA68"/>
<mask id="mask0_93_19612" style="mask-type:alpha" maskUnits="userSpaceOnUse" x="5" y="0" width="48" height="44">
<path d="M53 22C53 34.1503 42.2548 44 29 44C15.7452 44 5 34.1503 5 22C5 9.84974 15.7452 -5.363e-08 29 -1.19786e-07C42.2548 -1.85942e-07 53 9.84974 53 22Z" fill="#FFAB49"/>
</mask>
<g mask="url(#mask0_93_19612)">
<path d="M20.7139 33.3024C20.7139 38.4399 16.5199 42.6048 11.3464 42.6048C6.17295 42.6048 1.979 38.4399 1.979 33.3024C1.979 28.1648 6.17295 24 11.3464 24C16.5199 24 20.7139 28.1648 20.7139 33.3024Z" fill="#FF9A24"/>
<path d="M55.6343 33.3024C55.6343 38.4399 51.4403 42.6048 46.2668 42.6048C41.0934 42.6048 36.8994 38.4399 36.8994 33.3024C36.8994 28.1648 41.0934 24 46.2668 24C51.4403 24 55.6343 28.1648 55.6343 33.3024Z" fill="#FF9A24"/>
</g>
<path d="M30 29C30 29.5523 29.5523 30 29 30C28.4477 30 28 29.5523 28 29C28 28.4477 28.4477 28 29 28C29.5523 28 30 28.4477 30 29Z" fill="black"/>
<path d="M24 25.0967C24 26.1478 23.1046 27 22 27C20.8954 27 20 26.1478 20 25.0967C20 24.0455 20.8954 23.1933 22 23.1933C23.1046 23.1933 24 24.0455 24 25.0967Z" fill="black"/>
<path fill-rule="evenodd" clip-rule="evenodd" d="M23.0227 22.3764C23.2186 22.7238 23.0815 23.1564 22.7165 23.3428C22.5181 23.4441 22.2174 23.6515 22.0035 23.9103C21.791 24.1675 21.7325 24.3845 21.78 24.5736C21.8763 24.9569 21.6278 25.342 21.225 25.4337C20.8221 25.5254 20.4175 25.2889 20.3211 24.9055C20.1271 24.1331 20.4554 23.4745 20.8245 23.0279C21.1922 22.5829 21.6679 22.2582 22.0073 22.085C22.3723 21.8986 22.8269 22.0291 23.0227 22.3764Z" fill="black"/>
<path d="M38 25.0967C38 26.1478 37.1046 27 36 27C34.8954 27 34 26.1478 34 25.0967C34 24.0455 34.8954 23.1933 36 23.1933C37.1046 23.1933 38 24.0455 38 25.0967Z" fill="black"/>
<path fill-rule="evenodd" clip-rule="evenodd" d="M37.0227 22.3764C37.2186 22.7238 37.0815 23.1564 36.7165 23.3428C36.5181 23.4441 36.2174 23.6515 36.0035 23.9103C35.791 24.1675 35.7325 24.3845 35.78 24.5736C35.8763 24.9569 35.6278 25.342 35.225 25.4337C34.8221 25.5254 34.4175 25.2889 34.3211 24.9055C34.1271 24.1331 34.4554 23.4745 34.8245 23.0279C35.1922 22.5829 35.6679 22.2582 36.0073 22.085C36.3723 21.8986 36.8269 22.0291 37.0227 22.3764Z" fill="black"/>
<path fill-rule="evenodd" clip-rule="evenodd" d="M29 34L23.4957 32.2852C23.1108 32.1653 22.9073 31.7887 23.0412 31.4439C23.175 31.0992 23.5956 30.917 23.9804 31.0369L29 32.6006L34.0196 31.0369C34.4044 30.917 34.825 31.0992 34.9588 31.4439C35.0927 31.7887 34.8892 32.1653 34.5043 32.2852L29 34Z" fill="#A75A00"/>
<path fill-rule="evenodd" clip-rule="evenodd" d="M22.0059 19.9889C22.728 20.0642 23.3835 19.848 23.7414 19.6413C24.0762 19.448 24.5043 19.5627 24.6976 19.8975C24.8909 20.2322 24.7763 20.6604 24.4415 20.8537C23.8662 21.1859 22.9177 21.4916 21.8606 21.3813C20.7718 21.2677 19.6133 20.7159 18.6796 19.4066C18.4551 19.0919 18.5283 18.6547 18.8431 18.4303C19.1578 18.2058 19.595 18.279 19.8194 18.5937C20.5196 19.5756 21.3156 19.9169 22.0059 19.9889Z" fill="#905A09"/>
<path fill-rule="evenodd" clip-rule="evenodd" d="M36.1767 19.9889C35.4546 20.0642 34.7992 19.848 34.4412 19.6413C34.1064 19.448 33.6783 19.5627 33.485 19.8975C33.2917 20.2322 33.4063 20.6604 33.7411 20.8537C34.3164 21.1859 35.2649 21.4916 36.322 21.3813C37.4108 21.2677 38.5693 20.7159 39.503 19.4066C39.7275 19.0919 39.6543 18.6547 39.3395 18.4303C39.0248 18.2058 38.5877 18.279 38.3632 18.5937C37.663 19.5756 36.8671 19.9169 36.1767 19.9889Z" fill="#905A09"/>
</svg>
