<svg width="58" height="44" viewBox="0 0 58 44" fill="none" xmlns="http://www.w3.org/2000/svg">
<path d="M19.0699 27.5349C19.0699 32.8009 14.8009 37.0699 9.53494 37.0699C4.26894 37.0699 7.38727e-08 32.8009 4.75897e-08 27.5349C2.13066e-08 22.2689 4.26894 18 9.53494 18C14.8009 18 19.0699 22.2689 19.0699 27.5349Z" fill="#FF9C27"/>
<path d="M58.0015 27.5349C58.0015 32.8009 53.7326 37.0699 48.4666 37.0699C43.2006 37.0699 38.9316 32.8009 38.9316 27.5349C38.9316 22.2689 43.2006 18 48.4666 18C53.7326 18 58.0015 22.2689 58.0015 27.5349Z" fill="#FF9C27"/>
<path d="M53 22.0039C53 34.1542 42.2548 44.0039 29 44.0039C15.7452 44.0039 5 34.1542 5 22.0039C5 9.85364 15.7452 0.0039062 29 0.00390613C42.2548 0.00390606 53 9.85364 53 22.0039Z" fill="#FFBA68"/>
<mask id="mask0_93_19681" style="mask-type:alpha" maskUnits="userSpaceOnUse" x="5" y="0" width="48" height="44">
<path d="M53 22C53 34.1503 42.2548 44 29 44C15.7452 44 5 34.1503 5 22C5 9.84974 15.7452 -5.363e-08 29 -1.19786e-07C42.2548 -1.85942e-07 53 9.84974 53 22Z" fill="#FFAB49"/>
</mask>
<g mask="url(#mask0_93_19681)">
<path d="M20.7139 33.3024C20.7139 38.4399 16.5199 42.6048 11.3464 42.6048C6.17295 42.6048 1.979 38.4399 1.979 33.3024C1.979 28.1648 6.17295 24 11.3464 24C16.5199 24 20.7139 28.1648 20.7139 33.3024Z" fill="#FF9A24"/>
<path d="M55.6343 33.3024C55.6343 38.4399 51.4403 42.6048 46.2668 42.6048C41.0934 42.6048 36.8994 38.4399 36.8994 33.3024C36.8994 28.1648 41.0934 24 46.2668 24C51.4403 24 55.6343 28.1648 55.6343 33.3024Z" fill="#FF9A24"/>
</g>
<path d="M30 29C30 29.5523 29.5523 30 29 30C28.4477 30 28 29.5523 28 29C28 28.4477 28.4477 28 29 28C29.5523 28 30 28.4477 30 29Z" fill="black"/>
<path d="M31 33C31 34.1046 30.1046 35.0001 29 35.0001C27.8954 35.0001 27 34.1046 27 33C27 31.8954 27.8954 31 29 31C30.1046 31 31 31.8954 31 33Z" fill="#E16037"/>
<path fill-rule="evenodd" clip-rule="evenodd" d="M21.9463 18.5C22.2224 18.5 22.4463 18.7239 22.4463 19V20.4C22.4463 20.6761 22.2224 20.9 21.9463 20.9C21.6701 20.9 21.4463 20.6761 21.4463 20.4V19C21.4463 18.7239 21.6701 18.5 21.9463 18.5Z" fill="#905A09"/>
<path fill-rule="evenodd" clip-rule="evenodd" d="M25.1608 20.0515C25.3934 20.2003 25.4614 20.5095 25.3125 20.7421L24.5144 21.9893C24.3656 22.2219 24.0564 22.2898 23.8238 22.141C23.5912 21.9922 23.5233 21.683 23.6721 21.4504L24.4702 20.2031C24.619 19.9705 24.9282 19.9026 25.1608 20.0515Z" fill="#905A09"/>
<path fill-rule="evenodd" clip-rule="evenodd" d="M19.0711 20.0515C18.8385 20.2003 18.7706 20.5095 18.9194 20.7421L19.7175 21.9893C19.8663 22.2219 20.1755 22.2898 20.4081 22.141C20.6407 21.9922 20.7086 21.683 20.5598 21.4504L19.7617 20.2031C19.6129 19.9705 19.3037 19.9026 19.0711 20.0515Z" fill="#905A09"/>
<path d="M19.0005 23C19.0005 21.3431 20.3436 20 22.0005 20C23.6573 20 25.0005 21.3431 25.0005 23V26C25.0005 27.6569 23.6573 29 22.0005 29C20.3436 29 19.0005 27.6569 19.0005 26V23Z" fill="#B67310"/>
<path d="M21.9065 22.2535C21.9388 22.1665 22.0619 22.1665 22.0941 22.2535L22.7946 24.1467C22.8048 24.1741 22.8263 24.1956 22.8537 24.2058L24.7469 24.9063C24.8339 24.9385 24.8339 25.0616 24.7469 25.0939L22.8537 25.7944C22.8263 25.8045 22.8048 25.8261 22.7946 25.8535L22.0941 27.7466C22.0619 27.8337 21.9388 27.8337 21.9065 27.7466L21.206 25.8535C21.1959 25.8261 21.1743 25.8045 21.1469 25.7944L19.2538 25.0939C19.1667 25.0616 19.1667 24.9385 19.2538 24.9063L21.1469 24.2058C21.1743 24.1956 21.1959 24.1741 21.206 24.1467L21.9065 22.2535Z" fill="white"/>
<path fill-rule="evenodd" clip-rule="evenodd" d="M24.6993 21.8717C22.5523 20.2515 20.2113 21.1853 19.3017 21.8717C19.0813 22.0381 18.7677 21.9942 18.6014 21.7738C18.4351 21.5534 18.4789 21.2398 18.6993 21.0735C19.7897 20.2507 22.6487 19.0715 25.3017 21.0735C25.5221 21.2398 25.566 21.5534 25.3996 21.7738C25.2333 21.9942 24.9198 22.0381 24.6993 21.8717Z" fill="#905A09"/>
<path fill-rule="evenodd" clip-rule="evenodd" d="M36.1777 18.5C36.4539 18.5 36.6777 18.7239 36.6777 19V20.4C36.6777 20.6761 36.4539 20.9 36.1777 20.9C35.9016 20.9 35.6777 20.6761 35.6777 20.4V19C35.6777 18.7239 35.9016 18.5 36.1777 18.5Z" fill="#905A09"/>
<path fill-rule="evenodd" clip-rule="evenodd" d="M39.3923 20.0515C39.6249 20.2003 39.6928 20.5095 39.544 20.7421L38.7459 21.9893C38.597 22.2219 38.2878 22.2898 38.0552 22.141C37.8226 21.9922 37.7547 21.683 37.9036 21.4504L38.7016 20.2031C38.8505 19.9705 39.1597 19.9026 39.3923 20.0515Z" fill="#905A09"/>
<path fill-rule="evenodd" clip-rule="evenodd" d="M33.3025 20.0515C33.0699 20.2003 33.002 20.5095 33.1509 20.7421L33.9489 21.9893C34.0978 22.2219 34.407 22.2898 34.6396 22.141C34.8722 21.9922 34.9401 21.683 34.7913 21.4504L33.9932 20.2031C33.8443 19.9705 33.5351 19.9026 33.3025 20.0515Z" fill="#905A09"/>
<path d="M33.2319 23C33.2319 21.3431 34.5751 20 36.2319 20C37.8888 20 39.2319 21.3431 39.2319 23V26C39.2319 27.6569 37.8888 29 36.2319 29C34.5751 29 33.2319 27.6569 33.2319 26V23Z" fill="#B67310"/>
<path d="M36.138 22.2535C36.1702 22.1665 36.2933 22.1665 36.3256 22.2535L37.0261 24.1467C37.0362 24.1741 37.0578 24.1956 37.0852 24.2058L38.9783 24.9063C39.0654 24.9385 39.0654 25.0616 38.9783 25.0939L37.0852 25.7944C37.0578 25.8045 37.0362 25.8261 37.0261 25.8535L36.3256 27.7466C36.2933 27.8337 36.1702 27.8337 36.138 27.7466L35.4375 25.8535C35.4273 25.8261 35.4057 25.8045 35.3784 25.7944L33.4852 25.0939C33.3982 25.0616 33.3982 24.9385 33.4852 24.9063L35.3784 24.2058C35.4057 24.1956 35.4273 24.1741 35.4375 24.1467L36.138 22.2535Z" fill="white"/>
<path fill-rule="evenodd" clip-rule="evenodd" d="M38.9308 21.8717C36.7837 20.2515 34.4428 21.1853 33.5331 21.8717C33.3127 22.0381 32.9992 21.9942 32.8328 21.7738C32.6665 21.5534 32.7104 21.2398 32.9308 21.0735C34.0212 20.2507 36.8802 19.0715 39.5331 21.0735C39.7536 21.2398 39.7974 21.5534 39.6311 21.7738C39.4647 21.9942 39.1512 22.0381 38.9308 21.8717Z" fill="#905A09"/>
<path fill-rule="evenodd" clip-rule="evenodd" d="M21.0839 16.73C20.3659 16.8372 19.7851 17.21 19.49 17.4995C19.214 17.7702 18.7708 17.766 18.5001 17.49C18.2294 17.214 18.2336 16.7708 18.5096 16.5001C18.9838 16.0349 19.8261 15.5022 20.8772 15.3453C21.96 15.1837 23.2195 15.429 24.4503 16.464C24.7462 16.7128 24.7844 17.1544 24.5356 17.4503C24.2868 17.7462 23.8452 17.7844 23.5493 17.5355C22.6263 16.7594 21.7704 16.6275 21.0839 16.73Z" fill="#905A09"/>
<path fill-rule="evenodd" clip-rule="evenodd" d="M36.0839 16.73C35.3659 16.8372 34.7851 17.21 34.49 17.4995C34.214 17.7702 33.7708 17.766 33.5001 17.49C33.2294 17.214 33.2336 16.7708 33.5096 16.5001C33.9838 16.0349 34.8261 15.5022 35.8772 15.3453C36.96 15.1837 38.2195 15.429 39.4503 16.464C39.7462 16.7128 39.7844 17.1544 39.5356 17.4503C39.2868 17.7462 38.8452 17.7844 38.5493 17.5355C37.6263 16.7594 36.7704 16.6275 36.0839 16.73Z" fill="#905A09"/>
</svg>
