<svg width="58" height="44" viewBox="0 0 58 44" fill="none" xmlns="http://www.w3.org/2000/svg">
<path d="M19.0699 27.5349C19.0699 32.8009 14.8009 37.0699 9.53494 37.0699C4.26894 37.0699 7.38727e-08 32.8009 4.75897e-08 27.5349C2.13066e-08 22.2689 4.26894 18 9.53494 18C14.8009 18 19.0699 22.2689 19.0699 27.5349Z" fill="#FF9C27"/>
<path d="M58.0015 27.5349C58.0015 32.8009 53.7326 37.0699 48.4666 37.0699C43.2006 37.0699 38.9316 32.8009 38.9316 27.5349C38.9316 22.2689 43.2006 18 48.4666 18C53.7326 18 58.0015 22.2689 58.0015 27.5349Z" fill="#FF9C27"/>
<path d="M53 22.0039C53 34.1542 42.2548 44.0039 29 44.0039C15.7452 44.0039 5 34.1542 5 22.0039C5 9.85364 15.7452 0.0039062 29 0.00390613C42.2548 0.00390606 53 9.85364 53 22.0039Z" fill="#FFBA68"/>
<mask id="mask0_93_19627" style="mask-type:alpha" maskUnits="userSpaceOnUse" x="5" y="0" width="48" height="44">
<path d="M53 22C53 34.1503 42.2548 44 29 44C15.7452 44 5 34.1503 5 22C5 9.84974 15.7452 -5.363e-08 29 -1.19786e-07C42.2548 -1.85942e-07 53 9.84974 53 22Z" fill="#FFAB49"/>
</mask>
<g mask="url(#mask0_93_19627)">
<path d="M20.7139 33.3024C20.7139 38.4399 16.5199 42.6048 11.3464 42.6048C6.17295 42.6048 1.979 38.4399 1.979 33.3024C1.979 28.1648 6.17295 24 11.3464 24C16.5199 24 20.7139 28.1648 20.7139 33.3024Z" fill="#FF9A24"/>
<path d="M55.6343 33.3024C55.6343 38.4399 51.4403 42.6048 46.2668 42.6048C41.0934 42.6048 36.8994 38.4399 36.8994 33.3024C36.8994 28.1648 41.0934 24 46.2668 24C51.4403 24 55.6343 28.1648 55.6343 33.3024Z" fill="#FF9A24"/>
</g>
<path d="M30 29C30 29.5523 29.5523 30 29 30C28.4477 30 28 29.5523 28 29C28 28.4477 28.4477 28 29 28C29.5523 28 30 28.4477 30 29Z" fill="black"/>
<circle cx="22" cy="25" r="3" fill="black"/>
<circle cx="21.3075" cy="24.3077" r="1.38462" fill="white"/>
<circle cx="22.9228" cy="26.3847" r="0.692308" fill="white"/>
<circle cx="36" cy="25" r="3" fill="black"/>
<circle cx="35.3075" cy="24.3077" r="1.38462" fill="white"/>
<circle cx="36.9228" cy="26.3847" r="0.692308" fill="white"/>
<path fill-rule="evenodd" clip-rule="evenodd" d="M23.4957 32.2855C27.0803 33.4022 30.9197 33.4022 34.5043 32.2855C34.8892 32.1656 35.0927 31.789 34.9588 31.4442C34.825 31.0995 34.4044 30.9172 34.0196 31.0371C30.7507 32.0555 27.2493 32.0555 23.9804 31.0371C23.5956 30.9172 23.175 31.0995 23.0412 31.4442C22.9073 31.789 23.1108 32.1656 23.4957 32.2855Z" fill="#A75A00"/>
<path fill-rule="evenodd" clip-rule="evenodd" d="M21.8193 18.9971C22.4515 18.6402 22.8607 18.0844 23.0327 17.7086C23.1937 17.3571 23.6091 17.2026 23.9606 17.3636C24.3121 17.5245 24.4666 17.9399 24.3056 18.2914C24.0291 18.8954 23.4329 19.694 22.5073 20.2163C21.5539 20.7544 20.2899 20.9755 18.7704 20.4489C18.4051 20.3223 18.2116 19.9236 18.3382 19.5583C18.4648 19.193 18.8635 18.9995 19.2288 19.1261C20.3683 19.5209 21.2148 19.3382 21.8193 18.9971Z" fill="#905A09"/>
<path fill-rule="evenodd" clip-rule="evenodd" d="M36.2345 18.9971C35.6022 18.6402 35.193 18.0844 35.021 17.7086C34.86 17.3571 34.4446 17.2026 34.0931 17.3636C33.7416 17.5245 33.5871 17.9399 33.7481 18.2914C34.0246 18.8954 34.6208 19.694 35.5464 20.2163C36.4998 20.7544 37.7638 20.9755 39.2833 20.4489C39.6486 20.3223 39.8421 19.9236 39.7155 19.5583C39.5889 19.193 39.1902 18.9995 38.8249 19.1261C37.6854 19.5209 36.8389 19.3382 36.2345 18.9971Z" fill="#905A09"/>
</svg>
