<svg width="58" height="44" viewBox="0 0 58 44" fill="none" xmlns="http://www.w3.org/2000/svg">
<path d="M19.0699 27.531C19.0699 32.797 14.8009 37.066 9.53494 37.066C4.26894 37.066 7.38727e-08 32.797 4.75897e-08 27.531C2.13066e-08 22.265 4.26894 17.9961 9.53494 17.9961C14.8009 17.9961 19.0699 22.265 19.0699 27.531Z" fill="#FF9C27"/>
<path d="M58.0015 27.531C58.0015 32.797 53.7326 37.066 48.4666 37.066C43.2006 37.066 38.9316 32.797 38.9316 27.531C38.9316 22.265 43.2006 17.9961 48.4666 17.9961C53.7326 17.9961 58.0015 22.265 58.0015 27.531Z" fill="#FF9C27"/>
<path d="M53 22C53 34.1503 42.2548 44 29 44C15.7452 44 5 34.1503 5 22C5 9.84974 15.7452 -5.363e-08 29 -1.19786e-07C42.2548 -1.85942e-07 53 9.84974 53 22Z" fill="#FFBA68"/>
<path d="M30 28.9961C30 29.5484 29.5523 29.9961 29 29.9961C28.4477 29.9961 28 29.5484 28 28.9961C28 28.4438 28.4477 27.9961 29 27.9961C29.5523 27.9961 30 28.4438 30 28.9961Z" fill="black"/>
<path d="M25 24.9961C25 26.1007 23.6569 26.9961 22 26.9961C20.3431 26.9961 19 26.1007 19 24.9961C19 23.8915 20.3431 22.9961 22 22.9961C23.6569 22.9961 25 23.8915 25 24.9961Z" fill="black"/>
<path d="M39 24.9961C39 26.1007 37.6569 26.9961 36 26.9961C34.3431 26.9961 33 26.1007 33 24.9961C33 23.8915 34.3431 22.9961 36 22.9961C37.6569 22.9961 39 23.8915 39 24.9961Z" fill="black"/>
<path fill-rule="evenodd" clip-rule="evenodd" d="M21.9161 19.2661C22.6341 19.1589 23.2149 18.7861 23.51 18.4966C23.786 18.2259 24.2292 18.2301 24.4999 18.5061C24.7706 18.7821 24.7664 19.2253 24.4904 19.496C24.0162 19.9612 23.1739 20.4939 22.1228 20.6508C21.04 20.8124 19.7805 20.5671 18.5497 19.5321C18.2538 19.2833 18.2156 18.8417 18.4644 18.5458C18.7132 18.2499 19.1548 18.2117 19.4507 18.4605C20.3737 19.2367 21.2296 19.3686 21.9161 19.2661Z" fill="#905A09"/>
<path fill-rule="evenodd" clip-rule="evenodd" d="M36.0839 19.7261C35.3659 19.8333 34.7851 20.2061 34.49 20.4956C34.214 20.7663 33.7708 20.7621 33.5001 20.4861C33.2294 20.2101 33.2336 19.7669 33.5096 19.4962C33.9838 19.031 34.8261 18.4983 35.8772 18.3414C36.96 18.1798 38.2195 18.4251 39.4503 19.4601C39.7462 19.7089 39.7844 20.1505 39.5356 20.4464C39.2868 20.7423 38.8452 20.7804 38.5493 20.5316C37.6263 19.7555 36.7704 19.6236 36.0839 19.7261Z" fill="#905A09"/>
<path fill-rule="evenodd" clip-rule="evenodd" d="M21.4029 31.6305C21.6048 31.3008 22.0357 31.1971 22.3654 31.399L23.7648 32.2557C24.7093 32.8341 25.8897 32.868 26.866 32.345C28.199 31.6309 29.8008 31.6309 31.1338 32.345C32.1101 32.868 33.2905 32.8341 34.2351 32.2557L35.6344 31.399C35.9641 31.1971 36.395 31.3008 36.5969 31.6305C36.7988 31.9602 36.6951 32.3911 36.3654 32.593L34.9661 33.4497C33.5975 34.2876 31.8872 34.3369 30.4727 33.5791C29.5527 33.0862 28.4471 33.0862 27.5271 33.5791C26.1126 34.3369 24.4023 34.2876 23.0337 33.4497L21.6344 32.593C21.3047 32.3911 21.201 31.9602 21.4029 31.6305Z" fill="#A75A00"/>
<mask id="mask0_93_19761" style="mask-type:alpha" maskUnits="userSpaceOnUse" x="5" y="0" width="48" height="44">
<path d="M53 22C53 34.1503 42.2548 44 29 44C15.7452 44 5 34.1503 5 22C5 9.84974 15.7452 -5.363e-08 29 -1.19786e-07C42.2548 -1.85942e-07 53 9.84974 53 22Z" fill="#FFAB49"/>
</mask>
<g mask="url(#mask0_93_19761)">
<path d="M20.7139 33.3024C20.7139 38.4399 16.5199 42.6048 11.3464 42.6048C6.17295 42.6048 1.979 38.4399 1.979 33.3024C1.979 28.1648 6.17295 24 11.3464 24C16.5199 24 20.7139 28.1648 20.7139 33.3024Z" fill="#FF9A24"/>
<path d="M55.6343 33.3024C55.6343 38.4399 51.4403 42.6048 46.2668 42.6048C41.0934 42.6048 36.8994 38.4399 36.8994 33.3024C36.8994 28.1648 41.0934 24 46.2668 24C51.4403 24 55.6343 28.1648 55.6343 33.3024Z" fill="#FF9A24"/>
</g>
</svg>
