<svg width="58" height="44" viewBox="0 0 58 44" fill="none" xmlns="http://www.w3.org/2000/svg">
<path d="M19.0699 27.5349C19.0699 32.8009 14.8009 37.0699 9.53494 37.0699C4.26894 37.0699 7.38727e-08 32.8009 4.75897e-08 27.5349C2.13066e-08 22.2689 4.26894 18 9.53494 18C14.8009 18 19.0699 22.2689 19.0699 27.5349Z" fill="#FF9C27"/>
<path d="M58.0015 27.5349C58.0015 32.8009 53.7326 37.0699 48.4666 37.0699C43.2006 37.0699 38.9316 32.8009 38.9316 27.5349C38.9316 22.2689 43.2006 18 48.4666 18C53.7326 18 58.0015 22.2689 58.0015 27.5349Z" fill="#FF9C27"/>
<path d="M53 22.0039C53 34.1542 42.2548 44.0039 29 44.0039C15.7452 44.0039 5 34.1542 5 22.0039C5 9.85364 15.7452 0.0039062 29 0.00390613C42.2548 0.00390606 53 9.85364 53 22.0039Z" fill="#FFBA68"/>
<mask id="mask0_93_19597" style="mask-type:alpha" maskUnits="userSpaceOnUse" x="5" y="0" width="48" height="44">
<path d="M53 22C53 34.1503 42.2548 44 29 44C15.7452 44 5 34.1503 5 22C5 9.84974 15.7452 -5.363e-08 29 -1.19786e-07C42.2548 -1.85942e-07 53 9.84974 53 22Z" fill="#FFAB49"/>
</mask>
<g mask="url(#mask0_93_19597)">
<path d="M20.7139 33.3024C20.7139 38.4399 16.5199 42.6048 11.3464 42.6048C6.17295 42.6048 1.979 38.4399 1.979 33.3024C1.979 28.1648 6.17295 24 11.3464 24C16.5199 24 20.7139 28.1648 20.7139 33.3024Z" fill="#FF9A24"/>
<path d="M55.6343 33.3024C55.6343 38.4399 51.4403 42.6048 46.2668 42.6048C41.0934 42.6048 36.8994 38.4399 36.8994 33.3024C36.8994 28.1648 41.0934 24 46.2668 24C51.4403 24 55.6343 28.1648 55.6343 33.3024Z" fill="#FF9A24"/>
</g>
<path d="M30 29C30 29.5523 29.5523 30 29 30C28.4477 30 28 29.5523 28 29C28 28.4477 28.4477 28 29 28C29.5523 28 30 28.4477 30 29Z" fill="black"/>
<path d="M24 25.0967C24 26.1478 23.1046 27 22 27C20.8954 27 20 26.1478 20 25.0967C20 24.0455 20.8954 23.1933 22 23.1933C23.1046 23.1933 24 24.0455 24 25.0967Z" fill="black"/>
<path fill-rule="evenodd" clip-rule="evenodd" d="M23.0227 22.3764C23.2186 22.7238 23.0815 23.1564 22.7165 23.3428C22.5181 23.4441 22.2174 23.6515 22.0035 23.9103C21.791 24.1675 21.7325 24.3845 21.78 24.5736C21.8763 24.9569 21.6278 25.342 21.225 25.4337C20.8221 25.5254 20.4175 25.2889 20.3211 24.9055C20.1271 24.1331 20.4554 23.4745 20.8245 23.0279C21.1922 22.5829 21.6679 22.2582 22.0073 22.085C22.3723 21.8986 22.8269 22.0291 23.0227 22.3764Z" fill="black"/>
<path d="M38 25.0967C38 26.1478 37.1046 27 36 27C34.8954 27 34 26.1478 34 25.0967C34 24.0455 34.8954 23.1933 36 23.1933C37.1046 23.1933 38 24.0455 38 25.0967Z" fill="black"/>
<path fill-rule="evenodd" clip-rule="evenodd" d="M37.0227 22.3764C37.2186 22.7238 37.0815 23.1564 36.7165 23.3428C36.5181 23.4441 36.2174 23.6515 36.0035 23.9103C35.791 24.1675 35.7325 24.3845 35.78 24.5736C35.8763 24.9569 35.6278 25.342 35.225 25.4337C34.8221 25.5254 34.4175 25.2889 34.3211 24.9055C34.1271 24.1331 34.4554 23.4745 34.8245 23.0279C35.1922 22.5829 35.6679 22.2582 36.0073 22.085C36.3723 21.8986 36.8269 22.0291 37.0227 22.3764Z" fill="black"/>
<path d="M31 33C31 34.1046 30.1046 35.0001 29 35.0001C27.8954 35.0001 27 34.1046 27 33C27 31.8954 27.8954 31 29 31C30.1046 31 31 31.8954 31 33Z" fill="#E16037"/>
<path fill-rule="evenodd" clip-rule="evenodd" d="M21.0839 19.73C20.3659 19.8372 19.7851 20.21 19.49 20.4995C19.214 20.7702 18.7708 20.766 18.5001 20.49C18.2294 20.214 18.2336 19.7708 18.5096 19.5001C18.9838 19.0349 19.8261 18.5022 20.8772 18.3453C21.96 18.1837 23.2195 18.429 24.4503 19.464C24.7462 19.7128 24.7844 20.1544 24.5356 20.4503C24.2868 20.7462 23.8452 20.7844 23.5493 20.5355C22.6263 19.7594 21.7704 19.6275 21.0839 19.73Z" fill="#905A09"/>
<path fill-rule="evenodd" clip-rule="evenodd" d="M36.0839 19.73C35.3659 19.8372 34.7851 20.21 34.49 20.4995C34.214 20.7702 33.7708 20.766 33.5001 20.49C33.2294 20.214 33.2336 19.7708 33.5096 19.5001C33.9838 19.0349 34.8261 18.5022 35.8772 18.3453C36.96 18.1837 38.2195 18.429 39.4503 19.464C39.7462 19.7128 39.7844 20.1544 39.5356 20.4503C39.2868 20.7462 38.8452 20.7844 38.5493 20.5355C37.6263 19.7594 36.7704 19.6275 36.0839 19.73Z" fill="#905A09"/>
</svg>
