<svg width="100" height="100" viewBox="0 0 100 100" fill="none" xmlns="http://www.w3.org/2000/svg">
<path fill-rule="evenodd" clip-rule="evenodd" d="M44.2064 50.2259C44.0699 50.3028 43.934 50.3794 43.7981 50.455C42.4699 51.1947 40.7936 50.7177 40.0539 49.3894C39.3142 48.0612 39.7912 46.3848 41.1194 45.6451C41.2316 45.5827 41.3554 45.512 41.4904 45.435C42.7005 44.7446 44.8129 43.5395 47.5114 43.0953C50.6455 42.5793 54.352 43.0926 58.537 45.7182C59.8249 46.5262 60.2139 48.2252 59.4059 49.513C58.598 50.8009 56.899 51.1899 55.6112 50.3819C52.4885 48.4228 50.1307 48.2437 48.4057 48.5277C46.7307 48.8034 45.446 49.5274 44.2064 50.2259Z" fill="#EFBF76"/>
<path fill-rule="evenodd" clip-rule="evenodd" d="M40.8768 45.6704H23.5116C22.1849 45.6704 21.2966 47.0348 21.8334 48.2481L24.2693 53.7536C24.5632 54.4178 25.2212 54.8462 25.9475 54.8462H38.1364C38.8327 54.8462 39.469 54.4522 39.7793 53.8288L42.5196 48.3233C43.1269 47.1033 42.2395 45.6704 40.8768 45.6704ZM23.5116 42C19.5315 42 16.8665 46.0933 18.477 49.7332L20.9128 55.2387C21.7945 57.2314 23.7685 58.5166 25.9475 58.5166H38.1364C40.2253 58.5166 42.1342 57.3344 43.065 55.4644L45.8054 49.9588C47.6272 46.2988 44.9651 42 40.8768 42H23.5116Z" fill="#EFBF76"/>
<path fill-rule="evenodd" clip-rule="evenodd" d="M75.5882 45.6705H58.223C56.8963 45.6705 56.008 47.0349 56.5448 48.2482L58.9807 53.7537C59.2746 54.418 59.9326 54.8464 60.6589 54.8464H72.8478C73.5441 54.8464 74.1804 54.4523 74.4907 53.8289L77.2311 48.3234C77.8383 47.1034 76.951 45.6705 75.5882 45.6705ZM58.223 42.0001C54.2429 42.0001 51.578 46.0935 53.1884 49.7333L55.6243 55.2388C56.5059 57.2315 58.4799 58.5167 60.6589 58.5167H72.8478C74.9367 58.5167 76.8456 57.3345 77.7764 55.4645L80.5168 49.959C82.3386 46.2989 79.6765 42.0001 75.5882 42.0001H58.223Z" fill="#EFBF76"/>
</svg>
