<svg width="100" height="100" viewBox="0 0 100 100" fill="none" xmlns="http://www.w3.org/2000/svg">
<path d="M35.0321 61.1591C33.906 61.4894 33.183 60.2372 34.0321 59.4272L51.8875 42.3941C52.4364 41.8704 53.3132 41.9371 53.6547 42.5284L59.4783 52.6152C59.8198 53.2065 59.4391 53.9992 58.7112 54.2127L35.0321 61.1591Z" fill="#8C8C8C"/>
<path d="M60.75 35.2167C61.7599 34.2342 63.4371 35.1181 63.1974 36.5066L62.1616 42.5087C62.0545 43.1297 62.3593 43.749 62.9168 44.0428L68.3052 46.8827C69.5517 47.5396 69.2293 49.4077 67.8347 49.6089L61.8061 50.4786C61.1824 50.5685 60.6876 51.0498 60.5805 51.6708L59.5447 57.673C59.3051 59.0614 57.4287 59.3321 56.8064 58.068L54.1164 52.6033C53.8381 52.0379 53.2274 51.7161 52.6037 51.8061L46.5751 52.6757C45.1806 52.8769 44.3433 51.1761 45.3533 50.1936L49.7193 45.9466C50.171 45.5072 50.2884 44.827 50.0101 44.2617L47.32 38.797C46.6978 37.5329 48.0567 36.211 49.3032 36.868L54.6916 39.7078C55.249 40.0016 55.9322 39.9031 56.3839 39.4637L60.75 35.2167Z" fill="#FFC266"/>
</svg>
