<svg width="100" height="100" viewBox="0 0 100 100" fill="none" xmlns="http://www.w3.org/2000/svg">
<path fill-rule="evenodd" clip-rule="evenodd" d="M63.5615 48.6843C64.4044 48.6843 65.0878 49.3677 65.0878 50.2106V60.3859C65.0878 61.2288 64.4044 61.9121 63.5615 61.9121C62.7185 61.9121 62.0352 61.2288 62.0352 60.3859V50.2106C62.0352 49.3677 62.7185 48.6843 63.5615 48.6843Z" fill="black"/>
<path fill-rule="evenodd" clip-rule="evenodd" d="M62.5861 50.9621C59.3343 51.775 55.0037 52.2453 50.3335 52.2453C45.6632 52.2453 41.3326 51.775 38.0808 50.9621C36.4784 50.5615 34.965 50.0359 33.7788 49.3348C32.7969 48.7544 31 47.4302 31 45.1227C31 42.8152 32.7969 41.4909 33.7788 40.9105C34.965 40.2094 36.4784 39.6838 38.0808 39.2832C41.3326 38.4703 45.6632 38 50.3335 38C55.0037 38 59.3343 38.4703 62.5861 39.2832C64.1885 39.6838 65.7019 40.2094 66.8881 40.9105C67.87 41.4909 69.6669 42.8152 69.6669 45.1227C69.6669 47.4302 67.87 48.7544 66.8881 49.3348C65.7019 50.0359 64.1885 50.5615 62.5861 50.9621ZM50.3335 49.1928C59.3251 49.1928 66.6143 47.3705 66.6143 45.1227C66.6143 42.8748 59.3251 41.0526 50.3335 41.0526C41.3418 41.0526 34.0527 42.8748 34.0527 45.1227C34.0527 47.3705 41.3418 49.1928 50.3335 49.1928Z" fill="#FFC266"/>
</svg>
