<svg width="100" height="100" viewBox="0 0 100 100" fill="none" xmlns="http://www.w3.org/2000/svg">
<path d="M46.9718 44.2565C47.0429 44.1302 47.2029 44.0855 47.3292 44.1566L52.2065 46.9027C52.3327 46.9738 52.3774 47.1337 52.3064 47.26L43.2454 63.3532C43.1361 63.5474 42.8498 63.5255 42.7712 63.3169L41.6392 60.3106C41.5943 60.1915 41.4704 60.1217 41.3453 60.1451L38.1878 60.7363C37.9687 60.7773 37.8015 60.5438 37.9109 60.3497L46.9718 44.2565Z" fill="#337AFF"/>
<path d="M53.3835 44.1866C53.3097 44.0619 53.1488 44.0207 53.0241 44.0945L48.2075 46.9449C48.0828 47.0187 48.0416 47.1796 48.1154 47.3043L57.5231 63.1986C57.6366 63.3904 57.9224 63.3623 57.9964 63.1521L59.063 60.1222C59.1053 60.0021 59.2276 59.9297 59.3532 59.9504L62.5228 60.4734C62.7427 60.5097 62.9048 60.2727 62.7913 60.0809L53.3835 44.1866Z" fill="#337AFF"/>
<path d="M48.794 41.5354C51.1406 42.8566 51.1771 46.2224 48.8597 47.5938L40.3868 52.6081C38.0694 53.9795 35.1361 52.328 35.1069 49.6354L35.0002 39.7904C34.971 37.0978 37.8678 35.3835 40.2143 36.7047L48.794 41.5354Z" fill="#7FACFF"/>
<path d="M51.4175 41.5071C49.1001 42.8785 49.1366 46.2443 51.4832 47.5655L60.0629 52.3962C62.4094 53.7174 65.3062 52.0031 65.277 49.3105L65.1703 39.4655C65.1411 36.7729 62.2078 35.1214 59.8904 36.4928L51.4175 41.5071Z" fill="#7FACFF"/>
<path d="M46.186 43.1675C46.1703 41.7186 47.3321 40.5315 48.781 40.5159L51.4046 40.4876C52.8535 40.472 54.0408 41.6339 54.0565 43.0827L54.0849 45.7061C54.1006 47.1549 52.9388 48.3421 51.4899 48.3577L48.8664 48.386C47.4175 48.4016 46.2302 47.2397 46.2145 45.7908L46.186 43.1675Z" fill="#337AFF"/>
</svg>
