<svg width="100" height="100" viewBox="0 0 100 100" fill="none" xmlns="http://www.w3.org/2000/svg">
<path fill-rule="evenodd" clip-rule="evenodd" d="M44.4132 49.9765C44.2808 50.0511 44.149 50.1254 44.0172 50.1988C42.7292 50.916 41.1036 50.4534 40.3863 49.1654C39.669 47.8775 40.1317 46.2519 41.4197 45.5346C41.5284 45.474 41.6485 45.4055 41.7794 45.3308C42.9529 44.6614 45.0013 43.4928 47.6181 43.062C50.6573 42.5617 54.2517 43.0594 58.31 45.6055C59.5588 46.389 59.936 48.0365 59.1526 49.2853C58.3691 50.5341 56.7215 50.9113 55.4727 50.1279C52.4446 48.2281 50.1581 48.0544 48.4854 48.3298C46.8611 48.5972 45.6152 49.2992 44.4132 49.9765Z" fill="#646464"/>
<path d="M19.4625 49.4988C17.9009 45.9693 20.4851 42 24.3447 42H41.1842C45.1488 42 47.7303 46.1685 45.9636 49.7177L43.3062 55.0564C42.4036 56.8697 40.5524 58.0161 38.5268 58.0161H26.7069C24.5939 58.0161 22.6796 56.7699 21.8247 54.8375L19.4625 49.4988Z" fill="black"/>
<path fill-rule="evenodd" clip-rule="evenodd" d="M41.1842 45.5591H24.3447C23.0582 45.5591 22.1968 46.8822 22.7173 48.0587L25.0795 53.3974C25.3645 54.0416 26.0025 54.457 26.7069 54.457H38.5268C39.202 54.457 39.8191 54.0749 40.1199 53.4704L42.7774 48.1317C43.3662 46.9486 42.5057 45.5591 41.1842 45.5591ZM24.3447 42C20.4851 42 17.9009 45.9693 19.4625 49.4988L21.8247 54.8375C22.6796 56.7699 24.5939 58.0161 26.7069 58.0161H38.5268C40.5524 58.0161 42.4036 56.8697 43.3062 55.0564L45.9636 49.7177C47.7303 46.1685 45.1488 42 41.1842 42H24.3447Z" fill="#646464"/>
<path d="M53.1229 49.4988C51.5613 45.9693 54.1455 42 58.0051 42H74.8446C78.8092 42 81.3907 46.1685 79.624 49.7177L76.9666 55.0564C76.064 56.8697 74.2128 58.0161 72.1872 58.0161H60.3673C58.2543 58.0161 56.34 56.7699 55.4851 54.8375L53.1229 49.4988Z" fill="black"/>
<path fill-rule="evenodd" clip-rule="evenodd" d="M74.8446 45.5591H58.0051C56.7186 45.5591 55.8572 46.8822 56.3777 48.0587L58.7399 53.3974C59.0249 54.0416 59.6629 54.457 60.3673 54.457H72.1872C72.8624 54.457 73.4795 54.0749 73.7803 53.4704L76.4378 48.1317C77.0266 46.9486 76.1661 45.5591 74.8446 45.5591ZM58.0051 42C54.1455 42 51.5613 45.9693 53.1229 49.4988L55.4851 54.8375C56.34 56.7699 58.2543 58.0161 60.3673 58.0161H72.1872C74.2128 58.0161 76.064 56.8697 76.9666 55.0564L79.624 49.7177C81.3907 46.1685 78.8092 42 74.8446 42H58.0051Z" fill="#646464"/>
</svg>
