<svg width="100" height="100" viewBox="0 0 100 100" fill="none" xmlns="http://www.w3.org/2000/svg">
<path d="M63.6329 33.8304C64.9148 35.1122 64.9148 37.1904 63.6329 38.4722L60.9349 41.17C62.222 39.9684 64.2399 39.9949 65.4947 41.2496C66.7766 42.5314 66.7766 44.6096 65.4947 45.8914L62.3389 49.0469C63.3385 48.886 64.3985 49.1908 65.1691 49.9613C66.444 51.2361 66.444 53.303 65.1691 54.5778L54.1779 65.5681C53.79 65.9559 53.3289 66.2258 52.839 66.3776C47.8134 69.4353 41.1692 68.7921 36.8247 64.4479C32.9105 60.534 32.0007 54.7537 34.0951 49.972L33.9854 40.8054C33.9604 38.715 35.6202 37.2431 37.6928 37.5176C39.7653 37.7922 41.4656 39.7093 41.4906 41.7996L41.4935 42.0361L51.569 31.9613C52.8509 30.6796 54.9293 30.6796 56.2111 31.9613C57.493 33.2431 57.493 35.3214 56.2111 36.6032L46.7506 46.063L46.7539 46.0663L58.9908 33.8304C60.2727 32.5486 62.351 32.5486 63.6329 33.8304Z" fill="#FB9100"/>
</svg>
