<svg width="100" height="100" viewBox="0 0 100 100" fill="none" xmlns="http://www.w3.org/2000/svg">
<path d="M26.5241 37.0164C25.7372 31.621 29.9206 26.7834 35.3732 26.7834H64.7694C70.222 26.7834 74.4054 31.621 73.6185 37.0164L69.9669 62.0554C69.3261 66.4493 65.5583 69.7074 61.1178 69.7074H39.0248C34.5843 69.7074 30.8164 66.4493 30.1757 62.0554L26.5241 37.0164Z" fill="black"/>
<mask id="mask0_93_255" style="mask-type:alpha" maskUnits="userSpaceOnUse" x="26" y="25" width="48" height="47">
<path d="M26.3976 35.1356C25.6755 29.7711 29.8474 25 35.2604 25H64.8852C70.2981 25 74.4701 29.7711 73.7479 35.1355L69.8957 63.7515C69.2983 68.1892 65.5107 71.501 61.0329 71.501H39.1126C34.6348 71.501 30.8472 68.1892 30.2499 63.7515L26.3976 35.1356Z" fill="#D9D9D9"/>
</mask>
<g mask="url(#mask0_93_255)">
<path d="M28.6084 57.1913H71.5334V64.9414H28.6084V57.1913Z" fill="#DB0000"/>
</g>
<path d="M23.6644 69.992C21.9864 67.6231 23.6803 64.3474 26.5833 64.3474H73.5591C76.4622 64.3474 78.1561 67.6231 76.4781 69.992L73.9443 73.569C73.2737 74.5157 72.1856 75.0784 71.0254 75.0784H29.1171C27.9569 75.0784 26.8687 74.5157 26.1981 73.569L23.6644 69.992Z" fill="black"/>
</svg>
