<svg width="100" height="100" viewBox="0 0 100 100" fill="none" xmlns="http://www.w3.org/2000/svg">
<path d="M32.1851 44.4775L35.252 58.9603C35.3714 59.5241 35.8797 59.9285 36.469 59.9285H62.9953C63.6002 59.9285 64.1172 59.503 64.22 58.9206L66.781 44.4082C66.9441 43.4839 66.0187 42.7356 65.1198 43.065L58.0504 45.6551C57.5471 45.8395 56.9794 45.6868 56.6436 45.2767L50.6819 37.9957C50.1968 37.4033 49.2807 37.3857 48.7722 37.959L42.2373 45.326C41.897 45.7097 41.3483 45.846 40.8617 45.6677L33.8385 43.0945C32.9223 42.7588 31.9868 43.5413 32.1851 44.4775Z" fill="#FFC266"/>
<path d="M34.2142 61.1423C34.2142 60.4717 34.7706 59.9281 35.457 59.9281H64.0422C64.7286 59.9281 65.285 60.4717 65.285 61.1423V65.9995C65.285 66.6701 64.7286 67.2138 64.0422 67.2138H35.457C34.7706 67.2138 34.2142 66.6701 34.2142 65.9995V61.1423Z" fill="#FFA113"/>
<path d="M34.2142 41.106C34.2142 42.7826 32.8231 44.1417 31.1071 44.1417C29.3911 44.1417 28 42.7826 28 41.106C28 39.4294 29.3911 38.0703 31.1071 38.0703C32.8231 38.0703 34.2142 39.4294 34.2142 41.106Z" fill="#FFA113"/>
<path d="M52.8567 35.0357C52.8567 36.7123 51.4656 38.0714 49.7496 38.0714C48.0336 38.0714 46.6425 36.7123 46.6425 35.0357C46.6425 33.3591 48.0336 32 49.7496 32C51.4656 32 52.8567 33.3591 52.8567 35.0357Z" fill="#FFA113"/>
<path d="M71.4991 41.106C71.4991 42.7826 70.108 44.1417 68.392 44.1417C66.6761 44.1417 65.285 42.7826 65.285 41.106C65.285 39.4294 66.6761 38.0703 68.392 38.0703C70.108 38.0703 71.4991 39.4294 71.4991 41.106Z" fill="#FFA113"/>
</svg>
