<svg width="100" height="100" viewBox="0 0 100 100" fill="none" xmlns="http://www.w3.org/2000/svg">
<path d="M65.4735 40.5352C65.2325 39.8889 64.8914 39.18 64.4403 38.3988C58.8523 28.7207 47.8991 27.8763 38.2165 33.4662C28.5339 39.056 23.7886 48.9634 29.3766 58.6414C29.8115 59.3947 30.2394 60.0259 30.6632 60.5469C24.6762 65.1336 21.2764 68.8524 22.1303 70.3313C23.607 72.8888 37.2443 67.7801 52.5901 58.9208C67.9359 50.0615 79.1791 40.8064 77.7024 38.2489C76.8695 36.8064 72.1681 37.8027 65.4735 40.5352Z" fill="#FFC266"/>
<path d="M55.1305 44.7201C55.1186 44.6026 55.2041 44.4976 55.3216 44.4857L59.8614 44.0238C59.9789 44.0119 60.0839 44.0974 60.0958 44.215L61.6199 59.1945C61.6383 59.3752 61.4373 59.4952 61.287 59.3931L59.1203 57.9219C59.0344 57.8636 58.9191 57.8754 58.8468 57.9498L57.0208 59.8271C56.8941 59.9573 56.673 59.8804 56.6546 59.6996L55.1305 44.7201Z" fill="#337AFF"/>
<path d="M59.3695 41.6612C59.2618 41.6128 59.1352 41.6609 59.0868 41.7686L57.2169 45.9308C57.1685 46.0385 57.2166 46.1651 57.3244 46.2135L71.06 52.3835C71.2257 52.4579 71.4029 52.3049 71.3535 52.1301L70.6405 49.6102C70.6123 49.5104 70.6598 49.4046 70.7532 49.3594L73.1106 48.2187C73.2742 48.1396 73.2709 47.9055 73.1051 47.8311L59.3695 41.6612Z" fill="#337AFF"/>
<path d="M55.0664 42.0501C57.2505 41.8279 58.8562 44.0533 57.9565 46.0558L54.6672 53.3775C53.7676 55.38 51.0374 55.6578 49.7529 53.8774L45.0563 47.3682C43.7718 45.5878 44.8963 43.0847 47.0805 42.8625L55.0664 42.0501Z" fill="#7FACFF"/>
<path d="M56.801 40.7987C55.9014 42.8012 57.507 45.0266 59.6912 44.8044L67.677 43.9919C69.8612 43.7697 70.9857 41.2666 69.7012 39.4863L65.0047 32.977C63.7201 31.1967 60.9899 31.4744 60.0903 33.4769L56.801 40.7987Z" fill="#7FACFF"/>
<path d="M54.0949 44.3635C53.4037 43.4055 53.62 42.0687 54.578 41.3776L56.3127 40.1261C57.2707 39.435 58.6077 39.6513 59.2988 40.6093L60.5503 42.3438C61.2415 43.3017 61.0252 44.6386 60.0672 45.3297L58.3325 46.5811C57.3745 47.2723 56.0376 47.0559 55.3464 46.098L54.0949 44.3635Z" fill="#337AFF"/>
</svg>
