<svg width="100" height="100" viewBox="0 0 100 100" fill="none" xmlns="http://www.w3.org/2000/svg">
<path fill-rule="evenodd" clip-rule="evenodd" d="M7.17286 35.2597C7.63186 34.2004 8.86263 33.7139 9.92186 34.1729L28.5314 42.237C29.5538 41.034 31.078 40.2708 32.7804 40.2708H66.2242C67.9266 40.2708 69.4508 41.034 70.4732 42.237L89.0825 34.1729C90.1418 33.7139 91.3725 34.2005 91.8315 35.2597C92.2905 36.3189 91.804 37.5497 90.7447 38.0087L71.7981 46.219V56.1634L81.1835 61.4427C82.1896 62.0086 82.5464 63.2831 81.9805 64.2892C81.4145 65.2954 80.1401 65.6522 79.1339 65.0863L71.6861 60.8969C71.1688 63.4399 68.92 65.3537 66.2242 65.3537H32.7804C30.0845 65.3537 27.8356 63.4398 27.3184 60.8965L19.87 65.0863C18.8638 65.6522 17.5894 65.2954 17.0234 64.2892C16.4575 63.2831 16.8143 62.0086 17.8205 61.4427L27.2065 56.163V46.219L8.25967 38.0087C7.20044 37.5497 6.71386 36.3189 7.17286 35.2597Z" fill="#E6E6E6"/>
</svg>
