<svg width="100" height="100" viewBox="0 0 100 100" fill="none" xmlns="http://www.w3.org/2000/svg">
<path d="M22.6742 35.1483C33.0549 46.1354 40.3216 49.1353 40.3216 49.1353C38.9375 53.1315 33.8855 60.125 24.7503 56.1287C13.3314 51.1334 13.5684 25.5107 22.6742 35.1483Z" fill="#9D1515"/>
<path d="M76.568 35.1484C66.1873 46.1356 58.9206 49.1354 58.9206 49.1354C60.3047 53.1317 65.3567 60.1251 74.4919 56.1289C85.9108 51.1335 85.6738 25.5108 76.568 35.1484Z" fill="#9D1515"/>
<path fill-rule="evenodd" clip-rule="evenodd" d="M74.8592 66.3043C54.3952 50.9052 32.7424 59.3557 24.9366 65.611C22.6602 67.4352 19.3863 67.0037 17.6242 64.6473C15.862 62.2909 16.2788 58.9018 18.5551 57.0776C28.6995 48.9483 55.5749 38.4514 80.9888 57.5753C83.3173 59.3276 83.8328 62.7021 82.1402 65.1125C80.4475 67.5229 77.1877 68.0565 74.8592 66.3043Z" fill="#4E0303"/>
</svg>
