<svg width="100" height="100" viewBox="0 0 100 100" fill="none" xmlns="http://www.w3.org/2000/svg">
<path d="M32.8062 48.3501C32.8062 41.3127 38.5111 35.6077 45.5485 35.6077H55.1045C62.1419 35.6077 67.8469 41.3127 67.8469 48.3501V60.6877C67.8469 67.7251 62.1419 73.4301 55.1045 73.4301H45.5485C38.5111 73.4301 32.8062 67.7251 32.8062 60.6877V48.3501Z" fill="black"/>
<path d="M23.8302 35.0903L48.9005 23.3027C49.7698 22.894 50.777 22.8994 51.6419 23.3173L76.0331 35.1042C78.3825 36.2395 78.4453 39.5634 76.1404 40.7866L51.7477 53.7318C50.8251 54.2215 49.721 54.2277 48.793 53.7485L23.7241 40.8039C21.377 39.592 21.4397 36.2143 23.8302 35.0903Z" fill="#535353"/>
<path fill-rule="evenodd" clip-rule="evenodd" d="M33.6132 42.7534L47.8905 34.9005L50.1933 39.0874L35.9161 46.9403C35.6616 47.0803 35.5035 47.3477 35.5035 47.6381V74.4258H30.7251V47.6381C30.7251 45.6051 31.8318 43.7332 33.6132 42.7534Z" fill="#FFC266"/>
<path d="M54.6164 36.9917C54.6164 38.7511 52.4771 40.1774 49.8381 40.1774C47.1991 40.1774 45.0598 38.7511 45.0598 36.9917C45.0598 35.2323 47.1991 33.806 49.8381 33.806C52.4771 33.806 54.6164 35.2323 54.6164 36.9917Z" fill="black"/>
<path d="M29.1323 68.0509C29.1323 65.8517 30.9151 64.069 33.1142 64.069C35.3134 64.069 37.0961 65.8517 37.0961 68.0509V72.8298C37.0961 75.029 35.3134 76.8117 33.1142 76.8117C30.9151 76.8117 29.1323 75.029 29.1323 72.8298V68.0509Z" fill="#FFDA16"/>
</svg>
