<svg width="100" height="100" viewBox="0 0 100 100" fill="none" xmlns="http://www.w3.org/2000/svg">
<path fill-rule="evenodd" clip-rule="evenodd" d="M74.8592 66.736C54.3952 51.337 32.7424 59.7875 24.9366 66.0428C22.6602 67.8669 19.3863 67.4355 17.6242 65.079C15.862 62.7226 16.2788 59.3336 18.5551 57.5094C28.6995 49.3802 55.5749 38.8833 80.9888 58.0071C83.3173 59.7593 83.8328 63.1338 82.1402 65.5442C80.4475 67.9546 77.1877 68.4882 74.8592 66.736Z" fill="#FFC266"/>
<path d="M19.1954 55.3558C22.5203 61.1546 27.4828 59.4467 32.9799 56.251C38.477 53.0552 42.4272 49.5818 39.1022 43.783C35.7773 37.9842 24.9725 29.5026 19.4753 32.6984C13.9782 35.8941 15.8705 49.557 19.1954 55.3558Z" fill="#FFC266"/>
<path d="M23.6025 54.1055C25.5584 57.4627 28.4775 56.474 31.7111 54.6238C34.9447 52.7736 37.2683 50.7627 35.3125 47.4055C33.3566 44.0483 27.0008 39.1379 23.7672 40.9881C20.5336 42.8382 21.6467 50.7483 23.6025 54.1055Z" fill="#FFA113"/>
<path d="M80.0471 55.3558C76.7222 61.1546 71.7597 59.4467 66.2625 56.251C60.7654 53.0552 56.8153 49.5818 60.1402 43.783C63.4651 37.9842 74.27 29.5026 79.7671 32.6984C85.2642 35.8941 83.372 49.557 80.0471 55.3558Z" fill="#FFC266"/>
<path d="M75.6406 54.1058C73.6848 57.463 70.7657 56.4742 67.5321 54.624C64.2985 52.7739 61.9749 50.7629 63.9307 47.4057C65.8865 44.0485 72.2423 39.1381 75.476 40.9883C78.7096 42.8385 77.5965 50.7486 75.6406 54.1058Z" fill="#FFA113"/>
</svg>
