<svg width="100" height="100" viewBox="0 0 100 100" fill="none" xmlns="http://www.w3.org/2000/svg">
<path d="M58.1769 42.6165C60.8391 40.2964 64.7683 42.7032 63.9108 46.1287L63.7411 46.8068C63.3576 48.3388 63.9822 49.9176 65.2882 50.7176L65.8663 51.0717C68.7865 52.8604 67.6328 57.4695 64.1826 57.7979L63.4996 57.8629C61.9567 58.0098 60.6524 59.1464 60.2689 60.6784L60.0992 61.3565C59.2417 64.7821 54.5995 65.2239 53.3246 62.0013L53.0723 61.3633C52.5021 59.9221 51.0714 59.0458 49.5285 59.1926L48.8455 59.2576C45.3953 59.586 43.68 55.25 46.3423 52.9299L46.8693 52.4706C48.0599 51.4331 48.48 49.7548 47.9098 48.3136L47.6575 47.6757C46.3826 44.453 49.9647 41.3314 52.8849 43.1201L53.463 43.4742C54.7689 44.2742 56.4593 44.1133 57.6499 43.0757L58.1769 42.6165Z" fill="#FFDA79"/>
<path d="M59.7595 55.0099C58.4724 57.1109 55.7257 57.7708 53.6246 56.4838C51.5235 55.1968 50.8636 52.4503 52.1507 50.3493C53.4377 48.2483 56.1844 47.5884 58.2855 48.8754C60.3866 50.1624 61.0465 52.9089 59.7595 55.0099Z" fill="#FFAD33"/>
<path d="M39.7914 37.5267C40.8497 34.1578 45.4574 34.1578 46.5157 37.5267L46.7252 38.1936C47.1984 39.7003 48.5558 40.7204 50.0873 40.7204H50.7652C54.1898 40.7204 55.6137 45.2533 52.8431 47.3354L52.2947 47.7476C51.0557 48.6788 50.5372 50.3293 51.0105 51.836L51.2199 52.5028C52.2782 55.8718 48.5504 58.6733 45.7799 56.5912L45.2315 56.179C43.9924 55.2479 42.3147 55.2479 41.0757 56.179L40.5272 56.5912C37.7567 58.6733 34.0289 55.8718 35.0872 52.5028L35.2967 51.836C35.7699 50.3293 35.2515 48.6788 34.0124 47.7476L33.464 47.3355C30.6935 45.2533 32.1173 40.7204 35.5419 40.7204H36.2198C37.7513 40.7204 39.1087 39.7003 39.582 38.1936L39.7914 37.5267Z" fill="#FE8C8C"/>
<ellipse cx="43.1533" cy="47.2688" rx="4.46142" ry="4.46123" fill="#EF3434"/>
</svg>
