<svg width="100" height="100" viewBox="0 0 100 100" fill="none" xmlns="http://www.w3.org/2000/svg">
<path d="M16.2913 33.5086C15.0259 28.6511 17.8286 23.6583 22.5514 22.3567C27.2742 21.0551 32.1287 23.9378 33.3941 28.7953L41.4812 59.8373C42.7467 64.6947 39.944 69.6876 35.2211 70.9892C30.4983 72.2907 25.6439 69.4081 24.3784 64.5506L16.2913 33.5086Z" fill="#E1B791"/>
<path d="M23.4402 45.7618C22.73 43.0359 24.3029 40.2339 26.9532 39.5035C29.6036 38.7731 32.3279 40.3908 33.038 43.1168L37.5764 60.5371C38.2866 63.2631 36.7137 66.065 34.0633 66.7954C31.413 67.5259 28.6887 65.9082 27.9785 63.1822L23.4402 45.7618Z" fill="#E1934D"/>
<path d="M83.0671 33.6506C84.3325 28.7931 81.5298 23.8002 76.807 22.4987C72.0842 21.1971 67.2297 24.0798 65.9643 28.9372L57.8772 59.9792C56.6117 64.8367 59.4144 69.8296 64.1373 71.1311C68.8601 72.4327 73.7145 69.55 74.98 64.6926L83.0671 33.6506Z" fill="#E1B791"/>
<path d="M75.918 45.9038C76.6282 43.1778 75.0553 40.3759 72.4049 39.6455C69.7545 38.9151 67.0303 40.5328 66.3201 43.2587L61.7817 60.6791C61.0716 63.4051 62.6444 66.207 65.2948 66.9374C67.9452 67.6678 70.6695 66.0501 71.3796 63.3242L75.918 45.9038Z" fill="#E1934D"/>
<path fill-rule="evenodd" clip-rule="evenodd" d="M73.1997 79.3888C53.5712 64.6189 32.8026 72.7241 25.3154 78.7239C23.132 80.4735 19.9918 80.0597 18.3015 77.7995C16.6113 75.5394 17.0111 72.2888 19.1945 70.5391C28.9247 62.7419 54.7028 52.6739 79.0791 71.0165C81.3125 72.6971 81.807 75.9338 80.1834 78.2457C78.5599 80.5577 75.4331 81.0695 73.1997 79.3888Z" fill="#E1B791"/>
</svg>
