<svg width="100" height="100" viewBox="0 0 100 100" fill="none" xmlns="http://www.w3.org/2000/svg">
<path fill-rule="evenodd" clip-rule="evenodd" d="M32.1329 58.3114C36.9531 58.3114 40.7346 54.4859 40.7346 49.9213C40.7346 45.3567 36.9531 41.5312 32.1329 41.5312C27.3126 41.5312 23.5312 45.3567 23.5312 49.9213C23.5312 54.4859 27.3126 58.3114 32.1329 58.3114ZM32.1329 62.8425C38.1436 62.8425 43.2112 58.8696 44.7709 53.4472L44.8791 53.3877C45.9993 52.7715 47.1603 52.133 48.674 51.8897C50.1633 51.6504 52.1746 51.7839 54.812 53.3033C56.3228 58.7992 61.4267 62.8425 67.4904 62.8425C74.7435 62.8425 80.6233 57.0575 80.6233 49.9213C80.6233 42.7851 74.7435 37 67.4904 37C60.9715 37 55.562 41.6731 54.5336 47.8003C52.0776 46.9052 49.8453 46.7798 47.8658 47.0979C46.8437 47.2621 45.9147 47.5443 45.0998 47.8614C44.0973 41.7042 38.6734 37 32.1329 37C24.8798 37 19 42.7851 19 49.9213C19 57.0575 24.8798 62.8425 32.1329 62.8425ZM76.0921 49.9213C76.0921 54.4859 72.3107 58.3114 67.4904 58.3114C62.6701 58.3114 58.8887 54.4859 58.8887 49.9213C58.8887 45.3567 62.6701 41.5312 67.4904 41.5312C72.3107 41.5312 76.0921 45.3567 76.0921 49.9213Z" fill="black"/>
</svg>
