<svg width="100" height="100" viewBox="0 0 100 100" fill="none" xmlns="http://www.w3.org/2000/svg">
<path d="M56.765 37.0586C57.5016 34.4133 60.2545 32.8239 62.9137 33.5087C65.573 34.1934 67.1316 36.8929 66.395 39.5382L66.2998 39.8798C66.2055 40.2185 66.4077 40.5687 66.7482 40.6564L67.0906 40.7445C69.7498 41.4293 71.3084 44.1288 70.5718 46.7741C69.8352 49.4194 67.0823 51.0088 64.423 50.3241L54.4502 47.7562C54.1096 47.6685 53.9075 47.3183 54.0018 46.9796L56.765 37.0586Z" fill="#D0D5DA"/>
<path d="M43.8019 62.2287C43.0653 64.874 40.3124 66.4633 37.6531 65.7786C34.9939 65.0939 33.4353 62.3944 34.1719 59.749L34.267 59.4075C34.3614 59.0687 34.1592 58.7186 33.8187 58.6309L33.4763 58.5427C30.8171 57.858 29.2585 55.1585 29.9951 52.5132C30.7317 49.8679 33.4846 48.2785 36.1439 48.9632L46.1167 51.5311C46.4572 51.6188 46.6594 51.969 46.5651 52.3077L43.8019 62.2287Z" fill="#D0D5DA"/>
<path d="M55.829 40.1365L61.2894 49.594L42.374 60.5147L36.9136 51.0571L55.829 40.1365Z" fill="#D0D5DA"/>
</svg>
