<svg width="100" height="100" viewBox="0 0 100 100" fill="none" xmlns="http://www.w3.org/2000/svg">
<path d="M38.1334 46.4632C41.7871 42.0266 45.2499 41.4455 47.991 42.3811C51.9374 43.728 52.6067 48.9743 50.2437 52.4099C44.3143 61.0304 33.3686 59.6899 25.7034 56.729C24.5555 56.2856 24.9007 54.5936 26.1024 54.3293C29.4972 53.5827 33.8878 51.6184 38.1334 46.4632Z" fill="black"/>
<path d="M62.3097 46.4632C58.656 42.0266 55.1932 41.4455 52.4521 42.3811C48.5057 43.728 47.8364 48.9743 50.1994 52.4099C56.1288 61.0304 67.0745 59.6899 74.7397 56.729C75.8876 56.2856 75.5425 54.5936 74.3407 54.3293C70.9459 53.5827 66.5553 51.6184 62.3097 46.4632Z" fill="black"/>
</svg>
