<svg width="370" height="869" viewBox="0 0 370 869" fill="none" xmlns="http://www.w3.org/2000/svg">
<rect y="44" width="50" height="50" rx="10" fill="#E6E6E6"/>
<rect x="66" y="44" width="50" height="50" rx="10" fill="#E6E6E6"/>
<rect x="132" y="44" width="50" height="50" rx="10" fill="#E6E6E6"/>
<rect x="198" y="44" width="50" height="50" rx="10" fill="#E6E6E6"/>
<rect y="164" width="370" height="180" rx="10" fill="#E6E6E6"/>
<rect y="439" width="370" height="180" rx="10" fill="#E6E6E6"/>
<rect x="304" y="351" width="66" height="20" rx="10" fill="#E6E6E6"/>
<rect x="304" y="626" width="66" height="20" rx="10" fill="#E6E6E6"/>
<rect y="100" width="50" height="14" rx="7" fill="#E6E6E6"/>
<rect x="66" y="100" width="50" height="14" rx="7" fill="#E6E6E6"/>
<rect x="132" y="100" width="50" height="14" rx="7" fill="#E6E6E6"/>
<rect x="198" y="100" width="50" height="14" rx="7" fill="#E6E6E6"/>
<rect width="370" height="20" rx="10" fill="#E6E6E6"/>
<rect y="403" width="370" height="20" rx="10" fill="#E6E6E6"/>
<rect y="662" width="370" height="180" rx="10" fill="#E6E6E6"/>
<rect x="304" y="849" width="66" height="20" rx="10" fill="#E6E6E6"/>
</svg>
