<svg width="370" height="650" viewBox="0 0 370 650" fill="none" xmlns="http://www.w3.org/2000/svg">
<circle cx="30" cy="66" r="30" fill="#E6E6E6"/>
<circle cx="30" cy="224" r="30" fill="#E6E6E6"/>
<circle cx="30" cy="330" r="30" fill="#E6E6E6"/>
<circle cx="30" cy="436" r="30" fill="#E6E6E6"/>
<circle cx="30" cy="542" r="30" fill="#E6E6E6"/>
<rect x="72" y="36" width="292" height="64" rx="32" fill="#E6E6E6"/>
<rect x="72" y="194" width="292" height="64" rx="32" fill="#E6E6E6"/>
<rect x="72" y="300" width="292" height="64" rx="32" fill="#E6E6E6"/>
<rect x="72" y="406" width="292" height="64" rx="32" fill="#E6E6E6"/>
<rect x="72" y="512" width="292" height="64" rx="32" fill="#E6E6E6"/>
<rect x="298" y="106" width="66" height="20" rx="10" fill="#E6E6E6"/>
<rect x="298" y="264" width="66" height="20" rx="10" fill="#E6E6E6"/>
<rect x="298" y="370" width="66" height="20" rx="10" fill="#E6E6E6"/>
<rect x="298" y="476" width="66" height="20" rx="10" fill="#E6E6E6"/>
<rect x="298" y="582" width="66" height="20" rx="10" fill="#E6E6E6"/>
<rect x="223" y="106" width="71" height="20" rx="10" fill="#E6E6E6"/>
<rect y="109" width="60" height="14" rx="7" fill="#E6E6E6"/>
<rect y="267" width="60" height="14" rx="7" fill="#E6E6E6"/>
<rect y="373" width="60" height="14" rx="7" fill="#E6E6E6"/>
<rect y="479" width="60" height="14" rx="7" fill="#E6E6E6"/>
<rect y="585" width="60" height="14" rx="7" fill="#E6E6E6"/>
<rect x="223" y="264" width="71" height="20" rx="10" fill="#E6E6E6"/>
<rect y="158" width="370" height="20" rx="10" fill="#E6E6E6"/>
<rect width="370" height="20" rx="10" fill="#E6E6E6"/>
<rect x="223" y="370" width="71" height="20" rx="10" fill="#E6E6E6"/>
<rect x="223" y="476" width="71" height="20" rx="10" fill="#E6E6E6"/>
<rect x="223" y="582" width="71" height="20" rx="10" fill="#E6E6E6"/>
</svg>
