<svg width="64" height="57" viewBox="0 0 64 57" fill="none" xmlns="http://www.w3.org/2000/svg">
<path d="M22.0699 40.5349C22.0699 45.8009 17.8009 50.0699 12.5349 50.0699C7.26894 50.0699 3 45.8009 3 40.5349C3 35.2689 7.26894 31 12.5349 31C17.8009 31 22.0699 35.2689 22.0699 40.5349Z" fill="#FF9C27"/>
<path d="M61.0015 40.5349C61.0015 45.8009 56.7326 50.0699 51.4666 50.0699C46.2006 50.0699 41.9316 45.8009 41.9316 40.5349C41.9316 35.2689 46.2006 31 51.4666 31C56.7326 31 61.0015 35.2689 61.0015 40.5349Z" fill="#FF9C27"/>
<path d="M56 35.0039C56 47.1542 45.2548 57.0039 32 57.0039C18.7452 57.0039 8 47.1542 8 35.0039C8 22.8536 18.7452 13.0039 32 13.0039C45.2548 13.0039 56 22.8536 56 35.0039Z" fill="#FFBA68"/>
<mask id="mask0_162_32609" style="mask-type:alpha" maskUnits="userSpaceOnUse" x="8" y="13" width="48" height="44">
<path d="M56 35C56 47.1503 45.2548 57 32 57C18.7452 57 8 47.1503 8 35C8 22.8497 18.7452 13 32 13C45.2548 13 56 22.8497 56 35Z" fill="#FFAB49"/>
</mask>
<g mask="url(#mask0_162_32609)">
<path d="M23.7139 46.3024C23.7139 51.4399 19.5199 55.6048 14.3464 55.6048C9.17295 55.6048 4.979 51.4399 4.979 46.3024C4.979 41.1648 9.17295 37 14.3464 37C19.5199 37 23.7139 41.1648 23.7139 46.3024Z" fill="#FF9A24"/>
<path d="M58.6343 46.3024C58.6343 51.4399 54.4403 55.6048 49.2668 55.6048C44.0934 55.6048 39.8994 51.4399 39.8994 46.3024C39.8994 41.1648 44.0934 37 49.2668 37C54.4403 37 58.6343 41.1648 58.6343 46.3024Z" fill="#FF9A24"/>
</g>
<path fill-rule="evenodd" clip-rule="evenodd" d="M19.7693 29.5874C19.8101 29.9324 19.8311 30.2831 19.8311 30.6384C19.8311 35.8087 15.3917 40 9.91553 40C4.43934 40 0 35.8087 0 30.6384C0 28.0265 1.13285 25.6645 2.95994 23.9664C2.22161 22.6566 1.80322 21.1616 1.80322 19.5744C1.80322 14.4041 6.24256 10.2127 11.7188 10.2127C11.7731 10.2127 11.8274 10.2131 11.8816 10.2139C12.7289 5.85579 16.7729 2.55335 21.6338 2.55335C22.58 2.55335 23.4953 2.67848 24.362 2.91218C26.1684 1.1183 28.7205 0 31.5491 0C34.4884 0 37.1289 1.20746 38.9447 3.12566C40.0112 2.75546 41.1637 2.55335 42.3662 2.55335C47.2753 2.55335 51.3512 5.92161 52.1427 10.3439C56.8268 11.091 60.3945 14.9393 60.3945 19.5744C60.3945 20.762 60.1603 21.8979 59.7331 22.9433C62.3117 24.6337 64 27.4499 64 30.6384C64 35.8087 59.5607 40 54.0845 40C48.6083 40 44.1689 35.8087 44.1689 30.6384C44.1689 30.2832 44.1899 29.9326 44.2307 29.5877C42.8635 30.259 41.3097 30.6384 39.6621 30.6384C36.5758 30.6384 33.8188 29.3071 32.0002 27.2195C30.1817 29.3071 27.4247 30.6384 24.3384 30.6384C22.6906 30.6384 21.1366 30.2589 19.7693 29.5874Z" fill="black"/>
</svg>
