<svg width="58" height="59" viewBox="0 0 58 59" fill="none" xmlns="http://www.w3.org/2000/svg">
<path d="M19.0699 42.5349C19.0699 47.8009 14.8009 52.0699 9.53494 52.0699C4.26894 52.0699 7.38727e-08 47.8009 4.75897e-08 42.5349C2.13066e-08 37.2689 4.26894 33 9.53494 33C14.8009 33 19.0699 37.2689 19.0699 42.5349Z" fill="#FF9C27"/>
<path d="M58.0015 42.5349C58.0015 47.8009 53.7326 52.0699 48.4666 52.0699C43.2006 52.0699 38.9316 47.8009 38.9316 42.5349C38.9316 37.2689 43.2006 33 48.4666 33C53.7326 33 58.0015 37.2689 58.0015 42.5349Z" fill="#FF9C27"/>
<path d="M53 37.0039C53 49.1542 42.2548 59.0039 29 59.0039C15.7452 59.0039 5 49.1542 5 37.0039C5 24.8536 15.7452 15.0039 29 15.0039C42.2548 15.0039 53 24.8536 53 37.0039Z" fill="#FFBA68"/>
<mask id="mask0_162_32666" style="mask-type:alpha" maskUnits="userSpaceOnUse" x="5" y="15" width="48" height="44">
<path d="M53 37C53 49.1503 42.2548 59 29 59C15.7452 59 5 49.1503 5 37C5 24.8497 15.7452 15 29 15C42.2548 15 53 24.8497 53 37Z" fill="#FFAB49"/>
</mask>
<g mask="url(#mask0_162_32666)">
<path d="M20.7139 48.3024C20.7139 53.4399 16.5199 57.6048 11.3464 57.6048C6.17295 57.6048 1.979 53.4399 1.979 48.3024C1.979 43.1648 6.17295 39 11.3464 39C16.5199 39 20.7139 43.1648 20.7139 48.3024Z" fill="#FF9A24"/>
<path d="M55.6343 48.3024C55.6343 53.4399 51.4403 57.6048 46.2668 57.6048C41.0934 57.6048 36.8994 53.4399 36.8994 48.3024C36.8994 43.1648 41.0934 39 46.2668 39C51.4403 39 55.6343 43.1648 55.6343 48.3024Z" fill="#FF9A24"/>
</g>
<path fill-rule="evenodd" clip-rule="evenodd" d="M38.6581 10.9246C38.7097 10.5186 38.7362 10.1047 38.7362 9.68459C38.7362 4.33594 34.4313 0 29.1208 0C23.8104 0 19.5055 4.33594 19.5055 9.68459C19.5055 10.0781 19.5288 10.4662 19.5741 10.8475C10.4391 13.8387 4 21.0477 4 29.4656C4 32.5169 4.84602 35.4094 6.35979 37.9997C7.05583 36.8087 7.89303 35.6816 8.85406 34.6323L19.817 35.4718L21.3507 27.3966C21.7647 27.2898 22.1834 27.1914 22.6064 27.1017V35.4947H35.5872V27.1436C35.7985 27.1899 36.0087 27.2383 36.2177 27.2889L37.7718 35.4718L49.1185 34.603C50.0909 35.6607 50.9373 36.7979 51.6399 38.0001C53.1538 35.4097 54 32.5171 54 29.4656C54 21.1193 47.6698 13.9613 38.6581 10.9246Z" fill="black"/>
</svg>
