<svg width="58" height="53" viewBox="0 0 58 53" fill="none" xmlns="http://www.w3.org/2000/svg">
<path d="M19.0699 36.5349C19.0699 41.8009 14.8009 46.0699 9.53494 46.0699C4.26894 46.0699 7.38727e-08 41.8009 4.75897e-08 36.5349C2.13066e-08 31.2689 4.26894 27 9.53494 27C14.8009 27 19.0699 31.2689 19.0699 36.5349Z" fill="#FF9C27"/>
<path d="M58.0015 36.5349C58.0015 41.8009 53.7326 46.0699 48.4666 46.0699C43.2006 46.0699 38.9316 41.8009 38.9316 36.5349C38.9316 31.2689 43.2006 27 48.4666 27C53.7326 27 58.0015 31.2689 58.0015 36.5349Z" fill="#FF9C27"/>
<path d="M53 31.0039C53 43.1542 42.2548 53.0039 29 53.0039C15.7452 53.0039 5 43.1542 5 31.0039C5 18.8536 15.7452 9.00391 29 9.00391C42.2548 9.00391 53 18.8536 53 31.0039Z" fill="#FFBA68"/>
<mask id="mask0_162_32552" style="mask-type:alpha" maskUnits="userSpaceOnUse" x="5" y="9" width="48" height="44">
<path d="M53 31C53 43.1503 42.2548 53 29 53C15.7452 53 5 43.1503 5 31C5 18.8497 15.7452 9 29 9C42.2548 9 53 18.8497 53 31Z" fill="#FFAB49"/>
</mask>
<g mask="url(#mask0_162_32552)">
<path d="M20.7139 42.3024C20.7139 47.4399 16.5199 51.6048 11.3464 51.6048C6.17295 51.6048 1.979 47.4399 1.979 42.3024C1.979 37.1648 6.17295 33 11.3464 33C16.5199 33 20.7139 37.1648 20.7139 42.3024Z" fill="#FF9A24"/>
<path d="M55.6343 42.3024C55.6343 47.4399 51.4403 51.6048 46.2668 51.6048C41.0934 51.6048 36.8994 47.4399 36.8994 42.3024C36.8994 37.1648 41.0934 33 46.2668 33C51.4403 33 55.6343 37.1648 55.6343 42.3024Z" fill="#FF9A24"/>
</g>
<path d="M19.3903 3.59203C26.6051 6.46331 31.5304 -1.84666 44.4858 7.97785C48.0047 7.54835 44.4858 -4.9487 49.6448 2.20711C53.772 7.93176 50.1439 9.46417 47.9552 9.00247C56.6331 14.7733 61.5584 33.4707 51.052 31.7537C38.3078 29.6709 43.0777 13.0562 39.7942 17.2112C36.5107 21.3662 10.2481 33.9054 4.84807 31.7537C1.04686 30.2391 1.04686 24.9299 4.84807 23.4437C4.37927 22.9051 1.79738 23.3141 1.04686 19.6208C0.296338 15.9275 8.75787 9.51676 12.3541 7.97785C12.3541 4.0537 11.7603 0.555561 19.3903 3.59203Z" fill="black"/>
</svg>
