<svg width="58" height="55" viewBox="0 0 58 55" fill="none" xmlns="http://www.w3.org/2000/svg">
<path d="M19.0699 38.5349C19.0699 43.8009 14.8009 48.0699 9.53494 48.0699C4.26894 48.0699 7.38727e-08 43.8009 4.75897e-08 38.5349C2.13066e-08 33.2689 4.26894 29 9.53494 29C14.8009 29 19.0699 33.2689 19.0699 38.5349Z" fill="#FF9C27"/>
<path d="M58.0015 38.5349C58.0015 43.8009 53.7326 48.0699 48.4666 48.0699C43.2006 48.0699 38.9316 43.8009 38.9316 38.5349C38.9316 33.2689 43.2006 29 48.4666 29C53.7326 29 58.0015 33.2689 58.0015 38.5349Z" fill="#FF9C27"/>
<path d="M53 33.0039C53 45.1542 42.2548 55.0039 29 55.0039C15.7452 55.0039 5 45.1542 5 33.0039C5 20.8536 15.7452 11.0039 29 11.0039C42.2548 11.0039 53 20.8536 53 33.0039Z" fill="#FFBA68"/>
<mask id="mask0_162_32585" style="mask-type:alpha" maskUnits="userSpaceOnUse" x="5" y="11" width="48" height="44">
<path d="M53 33C53 45.1503 42.2548 55 29 55C15.7452 55 5 45.1503 5 33C5 20.8497 15.7452 11 29 11C42.2548 11 53 20.8497 53 33Z" fill="#FFAB49"/>
</mask>
<g mask="url(#mask0_162_32585)">
<path d="M20.7139 44.3024C20.7139 49.4399 16.5199 53.6048 11.3464 53.6048C6.17295 53.6048 1.979 49.4399 1.979 44.3024C1.979 39.1648 6.17295 35 11.3464 35C16.5199 35 20.7139 39.1648 20.7139 44.3024Z" fill="#FF9A24"/>
<path d="M55.6343 44.3024C55.6343 49.4399 51.4403 53.6048 46.2668 53.6048C41.0934 53.6048 36.8994 49.4399 36.8994 44.3024C36.8994 39.1648 41.0934 35 46.2668 35C51.4403 35 55.6343 39.1648 55.6343 44.3024Z" fill="#FF9A24"/>
</g>
<path d="M23.9024 8.70245C11.1216 -3.9172 -7.70496 21.762 5.49753 32.3642C5.49753 32.3642 9.07612 36.0448 17.2561 32.3642C25.4361 28.6836 27.9921 17.6412 27.9921 17.6412C27.9921 17.6412 34.6407 33.5969 51.2392 31.1952C53.6959 30.8397 55.6935 28.9922 56.2798 26.5801C62.0765 2.73132 31.1961 -9.3823 23.9024 8.70245Z" fill="black"/>
</svg>
