<svg width="58" height="51" viewBox="0 0 58 51" fill="none" xmlns="http://www.w3.org/2000/svg">
<path d="M19.0699 34.5349C19.0699 39.8009 14.8009 44.0699 9.53494 44.0699C4.26894 44.0699 7.38727e-08 39.8009 4.75897e-08 34.5349C2.13066e-08 29.2689 4.26894 25 9.53494 25C14.8009 25 19.0699 29.2689 19.0699 34.5349Z" fill="#FF9C27"/>
<path d="M58.0015 34.5349C58.0015 39.8009 53.7326 44.0699 48.4666 44.0699C43.2006 44.0699 38.9316 39.8009 38.9316 34.5349C38.9316 29.2689 43.2006 25 48.4666 25C53.7326 25 58.0015 29.2689 58.0015 34.5349Z" fill="#FF9C27"/>
<path d="M53 29.0039C53 41.1542 42.2548 51.0039 29 51.0039C15.7452 51.0039 5 41.1542 5 29.0039C5 16.8536 15.7452 7.00391 29 7.00391C42.2548 7.00391 53 16.8536 53 29.0039Z" fill="#FFBA68"/>
<mask id="mask0_162_32572" style="mask-type:alpha" maskUnits="userSpaceOnUse" x="5" y="7" width="48" height="44">
<path d="M53 29C53 41.1503 42.2548 51 29 51C15.7452 51 5 41.1503 5 29C5 16.8497 15.7452 7 29 7C42.2548 7 53 16.8497 53 29Z" fill="#FFAB49"/>
</mask>
<g mask="url(#mask0_162_32572)">
<path d="M20.7139 40.3024C20.7139 45.4399 16.5199 49.6048 11.3464 49.6048C6.17295 49.6048 1.979 45.4399 1.979 40.3024C1.979 35.1648 6.17295 31 11.3464 31C16.5199 31 20.7139 35.1648 20.7139 40.3024Z" fill="#FF9A24"/>
<path d="M55.6343 40.3024C55.6343 45.4399 51.4403 49.6048 46.2668 49.6048C41.0934 49.6048 36.8994 45.4399 36.8994 40.3024C36.8994 35.1648 41.0934 31 46.2668 31C51.4403 31 55.6343 35.1648 55.6343 40.3024Z" fill="#FF9A24"/>
</g>
<path fill-rule="evenodd" clip-rule="evenodd" d="M55 20.37C55 23.7133 53.9719 26.8685 52.1499 29.6522C51.4658 27.9724 50.5105 26.3931 49.3263 24.9484L49.9843 28.452L43.7149 28.9375L41.8658 19.0922C38.1789 17.2434 33.8353 16.1766 29.1852 16.1766C24.0518 16.1766 19.2919 17.4766 15.3767 19.6936L13.6405 28.9375L7.37117 28.452L7.67367 26.8414C7.03611 27.8469 6.50213 28.9029 6.08318 30C4.11601 27.1325 3 23.8534 3 20.37C3 9.11996 14.6406 0 29 0C43.3594 0 55 9.11996 55 20.37Z" fill="black"/>
</svg>
