<svg width="66" height="58" viewBox="0 0 66 58" fill="none" xmlns="http://www.w3.org/2000/svg">
<path d="M23.0699 41.5349C23.0699 46.8009 18.8009 51.0699 13.5349 51.0699C8.26894 51.0699 4 46.8009 4 41.5349C4 36.2689 8.26894 32 13.5349 32C18.8009 32 23.0699 36.2689 23.0699 41.5349Z" fill="#FF9C27"/>
<path d="M62.0015 41.5349C62.0015 46.8009 57.7326 51.0699 52.4666 51.0699C47.2006 51.0699 42.9316 46.8009 42.9316 41.5349C42.9316 36.2689 47.2006 32 52.4666 32C57.7326 32 62.0015 36.2689 62.0015 41.5349Z" fill="#FF9C27"/>
<path d="M57 36.0039C57 48.1542 46.2548 58.0039 33 58.0039C19.7452 58.0039 9 48.1542 9 36.0039C9 23.8536 19.7452 14.0039 33 14.0039C46.2548 14.0039 57 23.8536 57 36.0039Z" fill="#FFBA68"/>
<mask id="mask0_162_32595" style="mask-type:alpha" maskUnits="userSpaceOnUse" x="9" y="14" width="48" height="44">
<path d="M57 36C57 48.1503 46.2548 58 33 58C19.7452 58 9 48.1503 9 36C9 23.8497 19.7452 14 33 14C46.2548 14 57 23.8497 57 36Z" fill="#FFAB49"/>
</mask>
<g mask="url(#mask0_162_32595)">
<path d="M24.7139 47.3024C24.7139 52.4399 20.5199 56.6048 15.3464 56.6048C10.1729 56.6048 5.979 52.4399 5.979 47.3024C5.979 42.1648 10.1729 38 15.3464 38C20.5199 38 24.7139 42.1648 24.7139 47.3024Z" fill="#FF9A24"/>
<path d="M59.6343 47.3024C59.6343 52.4399 55.4403 56.6048 50.2668 56.6048C45.0934 56.6048 40.8994 52.4399 40.8994 47.3024C40.8994 42.1648 45.0934 38 50.2668 38C55.4403 38 59.6343 42.1648 59.6343 47.3024Z" fill="#FF9A24"/>
</g>
<path fill-rule="evenodd" clip-rule="evenodd" d="M40.8168 0.922427C43.7199 -1.31173 47.9149 0.765959 47.9149 4.43796C47.9149 6.98032 50.5636 8.64749 52.8435 7.54013L53.9736 6.99121C57.559 5.24974 61.4867 8.64214 60.3061 12.4607L59.917 13.7192C59.3964 15.4031 60.6502 17.1115 62.4067 17.1115C65.4403 17.1115 67.1039 20.6569 65.1718 23.0046L60.6346 28.5179C60.2967 28.9285 60.0546 29.4097 59.9259 29.9263L59.8175 30.3615C58.7184 34.7747 52.5029 34.8658 51.276 30.4867C51.2246 30.3034 51.159 30.1264 51.0801 29.9574C36.9939 19.5043 21.9808 25.2877 15.3854 30.0892C15.0717 30.5666 14.8117 31.0848 14.6097 31.6323C13.6118 34.337 11.9451 35.9621 10.159 35.9994C8.32988 36.0375 6.80763 34.4212 6.09787 31.6174C5.94696 31.0212 5.78732 30.4484 5.6132 29.9109C5.44997 29.407 5.18583 28.9324 4.85712 28.486L0.708886 22.8523C-1.0412 20.4756 0.649157 17.1115 3.5935 17.1115C5.33626 17.1115 6.58837 15.4282 6.09327 13.7509L5.86615 12.9814C4.81037 9.40461 8.5776 6.32453 11.8535 8.08615L12.1358 8.23796C14.3594 9.43368 17.0499 7.81665 17.0499 5.28454V4.7398C17.0499 0.910664 21.3952 -1.28441 24.4588 0.997171L28.9854 4.36842C31.1975 6.01587 34.2295 5.99188 36.4154 4.30964L40.8168 0.922427Z" fill="black"/>
</svg>
