<svg width="58" height="50" viewBox="0 0 58 50" fill="none" xmlns="http://www.w3.org/2000/svg">
<path d="M19.0699 33.5349C19.0699 38.8009 14.8009 43.0699 9.53494 43.0699C4.26894 43.0699 7.38727e-08 38.8009 4.75897e-08 33.5349C2.13066e-08 28.2689 4.26894 24 9.53494 24C14.8009 24 19.0699 28.2689 19.0699 33.5349Z" fill="#FF9C27"/>
<path d="M58.0015 33.5349C58.0015 38.8009 53.7326 43.0699 48.4666 43.0699C43.2006 43.0699 38.9316 38.8009 38.9316 33.5349C38.9316 28.2689 43.2006 24 48.4666 24C53.7326 24 58.0015 28.2689 58.0015 33.5349Z" fill="#FF9C27"/>
<path d="M53 28.0039C53 40.1542 42.2548 50.0039 29 50.0039C15.7452 50.0039 5 40.1542 5 28.0039C5 15.8536 15.7452 6.00391 29 6.00391C42.2548 6.00391 53 15.8536 53 28.0039Z" fill="#FFBA68"/>
<mask id="mask0_162_32562" style="mask-type:alpha" maskUnits="userSpaceOnUse" x="5" y="6" width="48" height="44">
<path d="M53 28C53 40.1503 42.2548 50 29 50C15.7452 50 5 40.1503 5 28C5 15.8497 15.7452 6 29 6C42.2548 6 53 15.8497 53 28Z" fill="#FFAB49"/>
</mask>
<g mask="url(#mask0_162_32562)">
<path d="M20.7139 39.3024C20.7139 44.4399 16.5199 48.6048 11.3464 48.6048C6.17295 48.6048 1.979 44.4399 1.979 39.3024C1.979 34.1648 6.17295 30 11.3464 30C16.5199 30 20.7139 34.1648 20.7139 39.3024Z" fill="#FF9A24"/>
<path d="M55.6343 39.3024C55.6343 44.4399 51.4403 48.6048 46.2668 48.6048C41.0934 48.6048 36.8994 44.4399 36.8994 39.3024C36.8994 34.1648 41.0934 30 46.2668 30C51.4403 30 55.6343 34.1648 55.6343 39.3024Z" fill="#FF9A24"/>
</g>
<path d="M19.6824 4.74796C-0.0208833 2.98129 1.64091 20.7522 5.22506 25.9997L17.9193 22.7593L20.556 14.5296C22.2818 24.5114 19.0998 23.6153 53.3779 26C63.2884 0.0848757 24.7555 -5.31015 19.6824 4.74796Z" fill="black"/>
</svg>
