<svg width="78" height="52" viewBox="0 0 78 52" fill="none" xmlns="http://www.w3.org/2000/svg">
<path d="M5.46673 13.8399C2.409 18.1294 -2.63227 32.5585 1.65727 35.6163C5.94681 38.674 17.9428 29.2025 21.0005 24.9129C24.0583 20.6234 23.0597 14.6672 18.7702 11.6095C14.4806 8.55174 8.52447 9.55032 5.46673 13.8399Z" fill="black"/>
<path d="M71.9607 13.7669C75.0184 18.0564 80.0597 32.4855 75.7701 35.5433C71.4806 38.601 59.4846 29.1295 56.4269 24.8399C53.3691 20.5504 54.3677 14.5942 58.6572 11.5365C62.9468 8.47874 68.9029 9.47732 71.9607 13.7669Z" fill="black"/>
<path d="M28.9605 35.5349C28.9605 40.8009 24.6916 45.0699 19.4256 45.0699C14.1596 45.0699 9.89063 40.8009 9.89063 35.5349C9.89063 30.2689 14.1596 26 19.4256 26C24.6916 26 28.9605 30.2689 28.9605 35.5349Z" fill="#FF9C27"/>
<path d="M67.8921 35.5349C67.8921 40.8009 63.6232 45.0699 58.3572 45.0699C53.0912 45.0699 48.8223 40.8009 48.8223 35.5349C48.8223 30.2689 53.0912 26 58.3572 26C63.6232 26 67.8921 30.2689 67.8921 35.5349Z" fill="#FF9C27"/>
<path d="M62.8906 30.0039C62.8906 42.1542 52.1455 52.0039 38.8906 52.0039C25.6358 52.0039 14.8906 42.1542 14.8906 30.0039C14.8906 17.8536 25.6358 8.00391 38.8906 8.00391C52.1455 8.00391 62.8906 17.8536 62.8906 30.0039Z" fill="#FFBA68"/>
<mask id="mask0_162_32649" style="mask-type:alpha" maskUnits="userSpaceOnUse" x="14" y="8" width="49" height="44">
<path d="M62.8906 30C62.8906 42.1503 52.1455 52 38.8906 52C25.6358 52 14.8906 42.1503 14.8906 30C14.8906 17.8497 25.6358 8 38.8906 8C52.1455 8 62.8906 17.8497 62.8906 30Z" fill="#FFAB49"/>
</mask>
<g mask="url(#mask0_162_32649)">
<path d="M30.6045 41.3024C30.6045 46.4399 26.4105 50.6048 21.2371 50.6048C16.0636 50.6048 11.8696 46.4399 11.8696 41.3024C11.8696 36.1648 16.0636 32 21.2371 32C26.4105 32 30.6045 36.1648 30.6045 41.3024Z" fill="#FF9A24"/>
<path d="M65.5249 41.3024C65.5249 46.4399 61.331 50.6048 56.1575 50.6048C50.984 50.6048 46.79 46.4399 46.79 41.3024C46.79 36.1648 50.984 32 56.1575 32C61.331 32 65.5249 36.1648 65.5249 41.3024Z" fill="#FF9A24"/>
</g>
<path fill-rule="evenodd" clip-rule="evenodd" d="M63.3154 26.9069C64.3346 24.7612 64.8909 22.4436 64.8909 20.0259C64.8909 8.96592 53.2502 0 38.8907 0C24.5313 0 12.8906 8.96592 12.8906 20.0259C12.8906 22.6033 13.5228 25.067 14.6742 27.33L14.018 28.4815C13.5621 29.2815 14.3569 30.2057 15.2679 29.9594C36.0424 24.3414 41.6856 18.9586 42.9366 16.3195C43.0447 16.6918 43.2082 17.1297 43.4451 17.6377C48.2828 28.0131 62.2583 30.6077 63.3334 29.5701C63.5849 29.3273 63.5422 28.3178 63.3154 26.9069Z" fill="black"/>
</svg>
