<svg width="62" height="46" viewBox="0 0 62 46" fill="none" xmlns="http://www.w3.org/2000/svg">
<path d="M48.2756 11.6988C48.008 10.9812 47.6292 10.1939 47.1283 9.32641C40.923 -1.42058 28.7599 -2.35825 18.0078 3.84902C7.25568 10.0563 1.98621 21.0579 8.19145 31.8049C8.67441 32.6413 9.14951 33.3423 9.62014 33.9208C2.97179 39.0142 -0.803549 43.1437 0.144697 44.786C1.78447 47.6259 16.9281 41.953 33.9691 32.1151C51.01 22.2773 63.4951 11.9999 61.8553 9.15999C60.9304 7.55821 55.7097 8.66452 48.2756 11.6988Z" fill="#FFC266"/>
<path d="M36.7898 16.3457C36.7765 16.2152 36.8716 16.0986 37.0021 16.0853L42.0432 15.5725C42.1737 15.5592 42.2903 15.6542 42.3036 15.7847L43.9961 32.4188C44.0165 32.6195 43.7932 32.7527 43.6264 32.6393L41.2203 31.0057C41.125 30.9409 40.9969 30.954 40.9166 31.0366L38.8889 33.1213C38.7482 33.2659 38.5027 33.1804 38.4823 32.9797L36.7898 16.3457Z" fill="#337AFF"/>
<path d="M41.4971 12.9489C41.3774 12.8951 41.2368 12.9486 41.1831 13.0682L39.1067 17.6901C39.0529 17.8097 39.1064 17.9503 39.226 18.0041L54.4789 24.8555C54.6629 24.9381 54.8597 24.7683 54.8047 24.5741L54.0131 21.7759C53.9817 21.665 54.0344 21.5476 54.1382 21.4974L56.756 20.2307C56.9376 20.1429 56.9339 19.883 56.7499 19.8003L41.4971 12.9489Z" fill="#337AFF"/>
<path d="M36.7183 13.3816C39.1438 13.1349 40.9268 15.6061 39.9278 17.8298L36.2751 25.9602C35.2761 28.1839 32.2443 28.4923 30.8179 26.5154L25.6026 19.2871C24.1762 17.3102 25.4249 14.5306 27.8504 14.2838L36.7183 13.3816Z" fill="#7FACFF"/>
<path d="M38.6446 11.992C37.6456 14.2157 39.4286 16.6869 41.854 16.4402L50.722 15.538C53.1474 15.2912 54.3962 12.5116 52.9698 10.5347L47.7544 3.30644C46.328 1.32948 43.2962 1.63792 42.2972 3.86162L38.6446 11.992Z" fill="#7FACFF"/>
<path d="M35.6401 15.9497C34.8726 14.8859 35.1128 13.4014 36.1766 12.6339L38.1029 11.2443C39.1667 10.4768 40.6513 10.717 41.4188 11.7808L42.8085 13.7069C43.5761 14.7706 43.3359 16.2551 42.2721 17.0226L40.3458 18.4123C39.2819 19.1797 37.7973 18.9395 37.0298 17.8757L35.6401 15.9497Z" fill="#337AFF"/>
</svg>
