<svg width="42" height="34" viewBox="0 0 42 34" fill="none" xmlns="http://www.w3.org/2000/svg">
<path d="M4.04084 12.0474L7.00203 26.031C7.11732 26.5754 7.60811 26.9659 8.17715 26.9659H33.7892C34.3733 26.9659 34.8725 26.555 34.9718 25.9926L37.4445 11.9805C37.6019 11.0881 36.7085 10.3656 35.8406 10.6836L29.0148 13.1844C28.5288 13.3625 27.9807 13.2151 27.6564 12.819L21.9002 5.78905C21.4318 5.21708 20.5473 5.20007 20.0563 5.7536L13.7467 12.8667C13.4181 13.2371 12.8883 13.3687 12.4185 13.1966L5.6373 10.7121C4.75267 10.388 3.84942 11.1435 4.04084 12.0474Z" fill="#FFC266"/>
<path d="M6.00003 28.1379C6.00003 27.4903 6.53729 26.9654 7.20003 26.9654H34.8C35.4628 26.9654 36 27.4903 36 28.1379V32.8276C36 33.4751 35.4628 34 34.8 34H7.20002C6.53728 34 6.00003 33.4751 6.00003 32.8276V28.1379Z" fill="#FFA113"/>
<path d="M6 8.79211C6 10.4109 4.65686 11.7232 3 11.7232C1.34315 11.7232 0 10.4109 0 8.79211C0 7.17332 1.34315 5.86104 3 5.86104C4.65686 5.86104 6 7.17332 6 8.79211Z" fill="#FFA113"/>
<path d="M24 2.93107C24 4.54986 22.6569 5.86215 21 5.86215C19.3432 5.86215 18 4.54986 18 2.93107C18 1.31229 19.3432 0 21 0C22.6569 0 24 1.31229 24 2.93107Z" fill="#FFA113"/>
<path d="M42 8.79211C42 10.4109 40.6569 11.7232 39 11.7232C37.3431 11.7232 36 10.4109 36 8.79211C36 7.17332 37.3431 5.86104 39 5.86104C40.6569 5.86104 42 7.17332 42 8.79211Z" fill="#FFA113"/>
</svg>
