<svg width="62" height="60" viewBox="0 0 62 60" fill="none" xmlns="http://www.w3.org/2000/svg">
<path d="M12 28.1499C12 20.3351 18.3351 14 26.1499 14H36.7615C44.5762 14 50.9113 20.3351 50.9113 28.1499V41.8501C50.9113 49.6649 44.5762 56 36.7614 56H26.1499C18.3351 56 12 49.6649 12 41.8501V28.1499Z" fill="black"/>
<path d="M2.03234 13.4257L29.872 0.336176C30.8372 -0.117667 31.9557 -0.111716 32.9161 0.352373L60.0016 13.4411C62.6106 14.7018 62.6802 18.3928 60.1208 19.7511L33.0336 34.1262C32.0091 34.6699 30.7831 34.6768 29.7525 34.1447L1.91451 19.7704C-0.691803 18.4246 -0.622141 14.6738 2.03234 13.4257Z" fill="#535353"/>
<path fill-rule="evenodd" clip-rule="evenodd" d="M12.8961 21.9349L28.7504 13.2146L31.3077 17.8639L15.4533 26.5842C15.1707 26.7396 14.9952 27.0366 14.9952 27.3591V57.1055H9.68896V27.3591C9.68896 25.1015 10.918 23.0229 12.8961 21.9349Z" fill="#FFC266"/>
<path d="M36.2196 15.5373C36.2196 17.491 33.844 19.0749 30.9135 19.0749C27.983 19.0749 25.6074 17.491 25.6074 15.5373C25.6074 13.5836 27.983 11.9998 30.9135 11.9998C33.844 11.9998 36.2196 13.5836 36.2196 15.5373Z" fill="black"/>
<path d="M7.92041 50.0272C7.92041 47.5852 9.90009 45.6055 12.3422 45.6055C14.7842 45.6055 16.7639 47.5852 16.7639 50.0272V55.3339C16.7639 57.776 14.7842 59.7557 12.3422 59.7557C9.90009 59.7557 7.92041 57.776 7.92041 55.3339V50.0272Z" fill="#FFDA16"/>
</svg>
