<svg width="64" height="17" viewBox="0 0 64 17" fill="none" xmlns="http://www.w3.org/2000/svg">
<path fill-rule="evenodd" clip-rule="evenodd" d="M26.4245 8.29446C26.2869 8.37201 26.1498 8.44924 26.0128 8.52553C24.6736 9.27138 22.9833 8.79033 22.2374 7.45109C21.4916 6.11184 21.9726 4.42155 23.3119 3.6757C23.4249 3.61273 23.5498 3.54152 23.6859 3.46383C24.9061 2.76774 27.036 1.55265 29.757 1.1047C32.9171 0.584444 36.6545 1.10202 40.8743 3.74942C42.1728 4.56409 42.5651 6.27717 41.7504 7.5757C40.9357 8.87423 39.2226 9.26648 37.9241 8.45181C34.7755 6.47643 32.3981 6.29583 30.6587 6.58218C28.9698 6.86023 27.6744 7.59016 26.4245 8.29446Z" fill="#646464"/>
<path d="M0.480922 7.79732C-1.14288 4.12731 1.54424 0 5.55743 0H23.067C27.1893 0 29.8735 4.33446 28.0366 8.02487L25.2734 13.5761C24.3349 15.4616 22.4101 16.6536 20.3038 16.6536H8.01358C5.81645 16.6536 3.82606 15.3578 2.93707 13.3485L0.480922 7.79732Z" fill="black"/>
<path fill-rule="evenodd" clip-rule="evenodd" d="M23.067 3.70081H5.55743C4.2197 3.70081 3.32399 5.07658 3.86526 6.29991L6.3214 11.8511C6.61773 12.5209 7.2812 12.9528 8.01358 12.9528H20.3038C21.0059 12.9528 21.6475 12.5555 21.9604 11.927L24.7235 6.37577C25.3358 5.14563 24.4411 3.70081 23.067 3.70081ZM5.55743 0C1.54424 0 -1.14288 4.12731 0.480922 7.79732L2.93707 13.3485C3.82606 15.3578 5.81645 16.6536 8.01358 16.6536H20.3038C22.4101 16.6536 24.3349 15.4616 25.2734 13.5761L28.0366 8.02487C29.8735 4.33446 27.1893 0 23.067 0H5.55743Z" fill="#646464"/>
<path d="M35.4809 7.79732C33.8571 4.12731 36.5442 0 40.5574 0H58.067C62.1893 0 64.8735 4.33446 63.0366 8.02487L60.2734 13.5761C59.3349 15.4616 57.4101 16.6536 55.3038 16.6536H43.0136C40.8165 16.6536 38.8261 15.3578 37.9371 13.3485L35.4809 7.79732Z" fill="black"/>
<path fill-rule="evenodd" clip-rule="evenodd" d="M58.067 3.70081H40.5574C39.2197 3.70081 38.324 5.07658 38.8653 6.29991L41.3214 11.8511C41.6177 12.5209 42.2812 12.9528 43.0136 12.9528H55.3038C56.0059 12.9528 56.6475 12.5555 56.9604 11.927L59.7235 6.37577C60.3358 5.14563 59.4411 3.70081 58.067 3.70081ZM40.5574 0C36.5442 0 33.8571 4.12731 35.4809 7.79732L37.9371 13.3485C38.8261 15.3578 40.8165 16.6536 43.0136 16.6536H55.3038C57.4101 16.6536 59.3349 15.4616 60.2734 13.5761L63.0366 8.02487C64.8735 4.33446 62.1893 0 58.067 0H40.5574Z" fill="#646464"/>
</svg>
