<svg width="52" height="44" viewBox="0 0 52 44" fill="none" xmlns="http://www.w3.org/2000/svg">
<path d="M1.66974 9.84392C0.74757 6.30413 2.78997 2.66567 6.23157 1.71719C9.67317 0.768708 13.2107 2.86937 14.1329 6.40916L20.0261 29.0304C20.9483 32.5702 18.9059 36.2086 15.4643 37.1571C12.0227 38.1056 8.48513 36.0049 7.56295 32.4651L1.66974 9.84392Z" fill="#E1B791"/>
<path d="M6.87893 18.7738C6.36142 16.7874 7.50759 14.7455 9.43897 14.2132C11.3704 13.681 13.3556 14.8598 13.8731 16.8463L17.1803 29.5411C17.6978 31.5275 16.5516 33.5694 14.6203 34.1017C12.6889 34.634 10.7036 33.4551 10.1861 31.4686L6.87893 18.7738Z" fill="#E1934D"/>
<path d="M50.3303 9.94792C51.2524 6.40814 49.21 2.76968 45.7684 1.82119C42.3268 0.872712 38.7893 2.97338 37.8671 6.51316L31.9739 29.1344C31.0517 32.6742 33.0941 36.3126 36.5357 37.2611C39.9773 38.2096 43.5149 36.1089 44.437 32.5691L50.3303 9.94792Z" fill="#E1B791"/>
<path d="M45.1206 18.8779C45.6381 16.8914 44.4919 14.8495 42.5605 14.3172C40.6292 13.785 38.6439 14.9638 38.1264 16.9503L34.8192 29.6451C34.3017 31.6315 35.4479 33.6734 37.3793 34.2057C39.3106 34.738 41.2959 33.5591 41.8134 31.5726L45.1206 18.8779Z" fill="#E1934D"/>
<path fill-rule="evenodd" clip-rule="evenodd" d="M43.1405 43.2791C28.8368 32.5158 13.7023 38.4224 8.24624 42.7946C6.65515 44.0696 4.36681 43.768 3.1351 42.121C1.90339 40.4739 2.19472 38.1051 3.78582 36.8301C10.8764 31.148 29.6614 23.8111 47.4249 37.178C49.0524 38.4027 49.4127 40.7613 48.2296 42.4461C47.0465 44.1309 44.768 44.5039 43.1405 43.2791Z" fill="#E1B791"/>
</svg>
