<svg width="62" height="58" viewBox="0 0 62 58" fill="none" xmlns="http://www.w3.org/2000/svg">
<path d="M4.03545 13.7613C3.13442 7.58272 7.9249 2.04297 14.1688 2.04297H47.8313C54.0752 2.04297 58.8657 7.58274 57.9646 13.7613L53.7831 42.4347C53.0493 47.4663 48.7346 51.1974 43.6497 51.1974H18.3503C13.2655 51.1974 8.95079 47.4663 8.21701 42.4347L4.03545 13.7613Z" fill="black"/>
<mask id="mask0_93_19850" style="mask-type:alpha" maskUnits="userSpaceOnUse" x="3" y="0" width="56" height="54">
<path d="M3.88917 11.6067C3.06221 5.46361 7.8396 0 14.0381 0H47.9623C54.1609 0 58.9382 5.4636 58.1113 11.6067L53.7 44.3763C53.0159 49.4582 48.6787 53.2506 43.551 53.2506H18.4495C13.3218 53.2506 8.98457 49.4582 8.30047 44.3763L3.88917 11.6067Z" fill="#D9D9D9"/>
</mask>
<g mask="url(#mask0_93_19850)">
<path d="M6.42285 36.8633H55.5774V45.7384H6.42285V36.8633Z" fill="#DB0000"/>
</g>
<path d="M0.760792 51.5225C-1.16075 48.8098 0.779041 45.0586 4.10338 45.0586H57.8966C61.221 45.0586 63.1607 48.8098 61.2392 51.5225L58.3377 55.6187C57.5698 56.7028 56.3237 57.3472 54.9952 57.3472H7.00485C5.67626 57.3472 4.4302 56.7028 3.66226 55.6187L0.760792 51.5225Z" fill="black"/>
</svg>
