<svg width="28" height="25" viewBox="0 0 28 25" fill="none" xmlns="http://www.w3.org/2000/svg">
<path d="M10.8381 7.47474C10.9024 7.36043 11.0473 7.31994 11.1616 7.3843L15.577 9.87037C15.6913 9.93473 15.7318 10.0796 15.6674 10.1939L7.4645 24.7633C7.36553 24.9391 7.10634 24.9193 7.03526 24.7305L6.01038 22.0088C5.96977 21.9009 5.85764 21.8378 5.74439 21.859L2.88582 22.3942C2.68754 22.4313 2.53618 22.22 2.63515 22.0442L10.8381 7.47474Z" fill="#337AFF"/>
<path d="M16.6426 7.4115C16.5758 7.29862 16.4301 7.26126 16.3172 7.32807L11.9567 9.90864C11.8439 9.97545 11.8065 10.1211 11.8733 10.234L20.3902 24.6234C20.4929 24.797 20.7517 24.7716 20.8186 24.5813L21.7842 21.8382C21.8225 21.7295 21.9333 21.664 22.047 21.6827L24.9164 22.1562C25.1154 22.189 25.2622 21.9745 25.1595 21.8009L16.6426 7.4115Z" fill="#337AFF"/>
<path d="M12.4878 5.01126C14.6121 6.20737 14.6452 9.25448 12.5472 10.4961L4.87664 15.0356C2.7787 16.2772 0.123248 14.782 0.0968219 12.3443L0.000198139 3.43155C-0.0262291 0.993868 2.59619 -0.558106 4.72055 0.638001L12.4878 5.01126Z" fill="#7FACFF"/>
<path d="M14.8628 4.98568C12.7649 6.22727 12.7979 9.27437 14.9223 10.4705L22.6895 14.8437C24.8138 16.0399 27.4363 14.4879 27.4098 12.0502L27.3132 3.13739C27.2868 0.699705 24.6313 -0.795424 22.5334 0.446156L14.8628 4.98568Z" fill="#7FACFF"/>
<path d="M10.1266 6.48844C10.1123 5.17676 11.1641 4.10198 12.4758 4.08785L14.8509 4.06227C16.1626 4.04815 17.2375 5.10002 17.2517 6.41171L17.2774 8.78664C17.2917 10.0983 16.2399 11.1731 14.9282 11.1872L12.5531 11.2128C11.2414 11.2269 10.1665 10.1751 10.1523 8.86338L10.1266 6.48844Z" fill="#337AFF"/>
</svg>
