<svg width="62" height="26" viewBox="0 0 62 26" fill="none" xmlns="http://www.w3.org/2000/svg">
<path fill-rule="evenodd" clip-rule="evenodd" d="M26.4531 16.4875C26.329 16.5558 26.2054 16.6237 26.0819 16.6909C24.8743 17.3474 23.3501 16.924 22.6775 15.7452C22.005 14.5665 22.4387 13.0787 23.6464 12.4223C23.7483 12.3669 23.8609 12.3042 23.9837 12.2358C25.0839 11.6231 27.0045 10.5537 29.4581 10.1594C32.3077 9.7015 35.6778 10.1571 39.4829 12.4872C40.6538 13.2042 41.0075 14.712 40.2729 15.8549C39.5383 16.9978 37.9935 17.343 36.8226 16.626C33.9834 14.8874 31.8397 14.7284 30.2712 14.9804C28.7483 15.2252 27.5802 15.8676 26.4531 16.4875Z" fill="black"/>
<path d="M23.9262 13C23.9262 18.7608 19.1683 23.5 13.2131 23.5C7.25794 23.5 2.5 18.7608 2.5 13C2.5 7.23918 7.25794 2.5 13.2131 2.5C19.1683 2.5 23.9262 7.23918 23.9262 13Z" stroke="black" stroke-width="5"/>
<path d="M59.5 13C59.5 18.7608 54.742 23.5 48.7868 23.5C42.8317 23.5 38.0737 18.7608 38.0737 13C38.0737 7.23918 42.8317 2.5 48.7868 2.5C54.742 2.5 59.5 7.23918 59.5 13Z" stroke="black" stroke-width="5"/>
</svg>
